<svg id="Layer_1" data-name="Layer 1" xmlns="http://www.w3.org/2000/svg" viewBox="0 0 24 23"><defs><style>.cls-1{fill:#fff;}</style></defs><title>Artboard 1</title><path class="cls-1" d="M23.3,7.2a4.82,4.82,0,0,0-.9-2.3,3.82,3.82,0,0,0-2.3-1c-3.2-.2-8-.2-8-.2h0s-4.8,0-8,.2a3.64,3.64,0,0,0-2.4,1A4.82,4.82,0,0,0,.8,7.2S.6,9,.6,10.9v1.7c0,1.8.2,3.7.2,3.7a4.82,4.82,0,0,0,.9,2.3,4,4,0,0,0,2.5,1c1.8.2,7.8.2,7.8.2s4.8,0,8.1-.2a3.82,3.82,0,0,0,2.3-1,4.82,4.82,0,0,0,.9-2.3s.2-1.8.2-3.7V10.9a19.35,19.35,0,0,0-.2-3.7M9.7,14.7V8.3l6.2,3.2Z"/></svg>