<svg version="1.1" id="Layer_1" xmlns="http://www.w3.org/2000/svg" xmlns:xlink="http://www.w3.org/1999/xlink" x="0px" y="0px" width="31px" height="31px" viewBox="0 0 31 31" enable-background="new 0 0 31 31" xml:space="preserve">
	<g id="XMLID_6_">
		<path fill="#ffffff" id="XMLID_2_" d="M15.5,31C7,31,0,24,0,15.5S7,0,15.5,0S31,7,31,15.5S24,31,15.5,31z M15.5,1.6C7.9,1.6,1.6,7.9,1.6,15.5s6.2,13.9,13.9,13.9s13.9-6.2,13.9-13.9S23.1,1.6,15.5,1.6z"></path>
		<path fill="#ffffff" d="M8.1,10.2c-0.1,0-0.2,0.1-0.2,0.2v1c0,0.1,0.1,0.3,0.2,0.3l7.2,3.6c0.101,0,0.3,0,0.4,0l7.2-3.6c0.1,0,0.199-0.2,0.199-0.3v-1c0-0.101-0.1-0.2-0.199-0.2H8.1L8.1,10.2z M8,13.2c-0.1,0-0.1,0.1-0.1,0.2V20.6c0,0.101,0.1,0.2,0.2,0.2h14.8c0.1,0,0.199-0.1,0.199-0.2V13.4c0-0.101-0.1-0.2-0.199-0.101L15.7,16.9c-0.101,0-0.3,0-0.4,0L8,13.2L8,13.2z"></path>
	</g>
</svg>
