<svg id="Layer_1" data-name="Layer 1" xmlns="http://www.w3.org/2000/svg" viewBox="0 0 14.06 10.04"><defs><style>.cls-1{fill:#fff;}</style></defs><title>Artboard 1</title><path class="cls-1" d="M14,1.33,10.36,5,14,8.7a1.72,1.72,0,0,0,0-.4V1.71A1.72,1.72,0,0,0,14,1.33ZM.08,1.33a1.72,1.72,0,0,0,0,.38V8.29a1.72,1.72,0,0,0,0,.4L3.71,5ZM8.85,6.54a2.55,2.55,0,0,1-3.63,0l-.88-.89L.54,9.51a1.66,1.66,0,0,0,1.18.5H12.35a1.66,1.66,0,0,0,1.18-.5L9.73,5.65ZM8.23,5.9,13.55.51A1.66,1.66,0,0,0,12.35,0H1.72A1.66,1.66,0,0,0,.52.51L5.84,5.9A1.67,1.67,0,0,0,8.23,5.9Z"/></svg>