<svg version="1.1" id="Layer_1" xmlns="http://www.w3.org/2000/svg" xmlns:xlink="http://www.w3.org/1999/xlink" x="0px" y="0px" width="31px" height="31px" viewBox="0 0 31 31" enable-background="new 0 0 31 31" xml:space="preserve">
	<g id="XMLID_1_">
		<path fill="#ffffff" id="XMLID_2_" d="M15.5,31C7,31,0,24,0,15.5S7,0,15.5,0S31,7,31,15.5S24,31,15.5,31z M15.5,1.6C7.9,1.6,1.6,7.9,1.6,15.5s6.2,13.9,13.9,13.9s13.9-6.2,13.9-13.9S23.1,1.6,15.5,1.6z"></path>
		<path fill="#ffffff" id="XMLID_5_" d="M19.4,12.8H16.8V11c0-0.6,0.4-0.8,0.7-0.8s1.9,0,1.9,0V7.4H16.8c-2.8,0-3.5,2.1-3.5,3.5V12.8h-1.6v2.9h1.6c0,3.8,0,8.3,0,8.3h3.5c0,0,0-4.6,0-8.3h2.3L19.4,12.8z"></path>
	</g>
</svg>
