<svg id="Layer_1" data-name="Layer 1" xmlns="http://www.w3.org/2000/svg" viewBox="0 0 13.9 14.61"><defs><style>.cls-1{fill:#fff;}</style></defs><title>Artboard 1</title><path class="cls-1" d="M7,10.38,4,6.85c-.49-.57.15-1.56.6-2.26l.3-.45L5,4H5A.54.54,0,0,0,5,3.5L3.92.45h0A.52.52,0,0,0,3.81.24.56.56,0,0,0,3.36,0h0C3,0,1.77.94,1.77.94h0C.21,2.09,0,4.84,0,5a1.67,1.67,0,0,0,.06.4,12.15,12.15,0,0,0,3,5.21,12.57,12.57,0,0,0,4.73,3.75h0l.2.07c.31.1,3.25.35,4.63-.88h0s1.14-1,1.19-1.37h0a.52.52,0,0,0-.11-.46.54.54,0,0,0-.19-.14h0L10.6,10a.58.58,0,0,0-.55,0h0l-.61.25C8.62,10.54,7.54,11,7,10.38Z"/></svg>