<svg version="1.1" id="Layer_1" xmlns="http://www.w3.org/2000/svg" xmlns:xlink="http://www.w3.org/1999/xlink" x="0px" y="0px" width="31px" height="31px" viewBox="0 0 31 31" enable-background="new 0 0 31 31" xml:space="preserve">
	<g id="XMLID_6_">
	<g>
		<path fill="#ffffff" id="XMLID_13_" d="M16.5,14L16.5,14L16.5,14L16.5,14z"></path>
		<path fill="#ffffff" d="M12.3,21.1H9.4v-8.6h2.9V21.1z M10.8,11.3L10.8,11.3c-1,0-1.6-0.7-1.6-1.5s0.6-1.5,1.6-1.5s1.6,0.601,1.6,1.5C12.5,10.6,11.8,11.3,10.8,11.3z M22.6,21.1H19.7v-4.6c0-1.2-0.4-1.9-1.4-1.9c-0.8,0-1.3,0.5-1.5,1c-0.1,0.2-0.1,0.4-0.1,0.7v4.8h-2.9c0,0,0-7.8,0-8.6h2.9v1.2c0.399-0.601,1.1-1.4,2.6-1.4c1.9,0,3.3,1.2,3.3,3.9V21.1z"></path>
	</g>
		<path fill="#ffffff" id="XMLID_7_" d="M15.5,31C7,31,0,24,0,15.5S7,0,15.5,0S31,7,31,15.5S24,31,15.5,31z M15.5,1.6C7.9,1.6,1.6,7.9,1.6,15.5s6.2,13.9,13.9,13.9s13.9-6.2,13.9-13.9S23.1,1.6,15.5,1.6z"></path>
	</g>
</svg>
