<?xml version="1.0" encoding="utf-8"?>
<!-- Generator: Adobe Illustrator 19.2.1, SVG Export Plug-In . SVG Version: 6.00 Build 0)  -->
<svg version="1.1" id="Layer_1" xmlns="http://www.w3.org/2000/svg" xmlns:xlink="http://www.w3.org/1999/xlink" x="0px" y="0px"
	 viewBox="0 0 272.3 37" style="enable-background:new 0 0 272.3 37;" xml:space="preserve">
<style type="text/css">
	.st0{fill:none;stroke:#000000;}
	.st1{fill:#004272;stroke:#FFFFFF;stroke-width:1.0001;}
	.st2{fill:#FFFFFF;}
	.st3{fill:#004272;}
	.st4{fill-rule:evenodd;clip-rule:evenodd;fill:#004272;}
</style>
<line class="st0" x1="167" y1="0" x2="167" y2="37"/>
<g id="XMLID_486_">
	<path id="XMLID_493_" d="M217.8,11.3c0.4,0.4,0.7,0.9,1,1.5C218.5,12.2,218.2,11.7,217.8,11.3z"/>
	<path id="XMLID_492_" d="M218,25c0.5-0.7,0.8-1.4,1.1-2.2c-0.6,1.6-1.7,3.2-3.2,4.3C216.8,26.5,217.4,25.8,218,25z"/>
	<path id="XMLID_491_" d="M228.2,13.1c-1.1,0-2.1,0.2-3,0.5c0.3,1.2,0.4,2.5,0.4,4c0,0.2,0,0.3,0,0.5c0.7-0.7,1.6-1,2.6-1
		c2.8,0,4.5,2.6,4.5,6.6s-1.6,6.5-4.5,6.5c-2.2,0-3.7-1.7-4.2-4.5c-0.8,1.6-1.8,3.1-3,4.4c1.6,2.6,4.2,4,7.3,4c5.1,0,9-4,9-10.4
		C237.2,17.2,233.3,13.1,228.2,13.1z"/>
	<path id="XMLID_490_" d="M224,14.2c-0.1-0.5-0.2-0.9-0.3-1.3c-1.3-4.4-4.5-6.7-8.7-6.7c-5.3,0-9.2,4-9.2,9.5c0,5.4,3.1,8.2,7.6,8.2
		c1.5,0,3-0.3,4.5-0.9c0.5-1.3,0.8-2.6,0.9-3.9c-1.3,0.6-2.6,1-4.1,1c-2.7,0-4.1-1.6-4.1-4.7c0-3.1,1.8-5.3,4.5-5.3
		c0.9,0,1.7,0.2,2.4,0.7c0,0,0,0,0,0c0.1,0.1,0.2,0.2,0.3,0.2c0.1,0.1,0.2,0.2,0.3,0.2c0.4,0.4,0.8,0.9,1,1.5
		c1.2,2.5,1.6,6.5,0.3,10c-0.3,0.8-0.6,1.5-1.1,2.2c-0.5,0.8-1.2,1.5-2.1,2.1c0,0-0.1,0-0.1,0.1c-0.1,0.1-0.2,0.2-0.3,0.2
		c-0.2,0.1-0.3,0.2-0.5,0.3c-0.1,0.1-0.2,0.1-0.4,0.2c0,0,0,0,0,0l0,0c-1.3,0.7-2.8,1.3-4.7,1.8V34l0,0c3.7-0.7,6.9-2.2,9.3-4.3
		c0.3-0.3,0.7-0.6,1-0.9c2.6-2.7,4-6.4,4-11.2C224.3,16.4,224.2,15.2,224,14.2z"/>
	<path id="XMLID_489_" d="M217.5,11c0.1,0.1,0.2,0.2,0.3,0.2C217.7,11.2,217.6,11.1,217.5,11z"/>
	<path id="XMLID_488_" d="M214.6,28C214.6,28,214.6,28,214.6,28L214.6,28C214.6,28,214.6,28,214.6,28z"/>
	<path id="XMLID_487_" d="M217.2,10.8c0.1,0.1,0.2,0.2,0.3,0.3C217.4,10.9,217.3,10.8,217.2,10.8C217.2,10.8,217.2,10.8,217.2,10.8z
		"/>
</g>
<g id="XMLID_432_">
	<path id="XMLID_484_" d="M243,18.6c-0.3,1-0.8,1.3-1.6,1.3c-0.2,0-0.3,0-0.4,0l-0.1-0.9c0.1,0,0.2,0.1,0.5,0.1
		c0.3,0,0.5-0.1,0.6-0.4l0-0.1l-1.3-3.6l1.2-0.1l0.7,2.3l0.7-2.3h1.1L243,18.6z"/>
	<path id="XMLID_481_" d="M247.8,17h-2.2c0.1,0.6,0.4,0.8,0.9,0.8c0.4,0,0.8-0.2,1.2-0.4l0.1,0.8c-0.4,0.3-0.9,0.4-1.5,0.4
		c-1.1,0-1.9-0.6-1.9-1.9c0-1.2,0.7-1.9,1.7-1.9c1.1,0,1.6,0.8,1.6,1.9C247.8,16.8,247.8,16.9,247.8,17z M246.2,15.5
		c-0.3,0-0.5,0.3-0.6,0.8h1.2C246.7,15.8,246.5,15.5,246.2,15.5z"/>
	<path id="XMLID_478_" d="M250.5,18.5l-0.1-0.5c-0.3,0.3-0.7,0.5-1.2,0.5c-0.6,0-1-0.4-1-1c0-0.9,0.7-1.3,2.1-1.4v-0.1
		c0-0.3-0.2-0.5-0.6-0.5c-0.4,0-0.8,0.1-1.2,0.3l-0.1-0.9c0.4-0.2,0.9-0.3,1.5-0.3c1,0,1.5,0.3,1.5,1.3v2.5H250.5z M250.3,16.8
		c-0.8,0.1-1,0.4-1,0.7c0,0.2,0.1,0.4,0.4,0.4c0.2,0,0.4-0.1,0.6-0.3V16.8z"/>
	<path id="XMLID_476_" d="M253.4,16.5v2h-1.1v-3.7h1l0.1,0.7c0.2-0.4,0.5-0.8,1.1-0.8l0.2,1.2C254,16,253.6,16.2,253.4,16.5z"/>
	<path id="XMLID_474_" d="M256.4,18.6c-0.6,0-1.1-0.2-1.5-0.4l0.1-0.9c0.4,0.3,1,0.4,1.4,0.4c0.3,0,0.5-0.1,0.5-0.3
		c0-0.2-0.1-0.3-0.6-0.4c-0.9-0.2-1.3-0.5-1.3-1.2c0-0.7,0.5-1.1,1.4-1.1c0.5,0,1,0.1,1.4,0.3l-0.1,0.9c-0.4-0.2-0.9-0.3-1.2-0.3
		c-0.3,0-0.4,0.1-0.4,0.2c0,0.2,0.1,0.2,0.6,0.4c1,0.3,1.3,0.5,1.3,1.2C257.9,18.2,257.4,18.6,256.4,18.6z"/>
	<path id="XMLID_471_" d="M261.6,18.6c-1,0-1.8-0.7-1.8-1.9c0-1.2,0.8-1.9,1.8-1.9c1,0,1.8,0.7,1.8,1.9
		C263.4,17.9,262.7,18.6,261.6,18.6z M261.6,15.7c-0.4,0-0.7,0.4-0.7,1c0,0.6,0.2,1,0.7,1c0.4,0,0.7-0.4,0.7-1
		C262.3,16.1,262.1,15.7,261.6,15.7z"/>
	<path id="XMLID_469_" d="M265.8,14.1c-0.3,0-0.5,0.2-0.5,0.5v0.3h0.7l0.1,0.9h-0.8v2.8h-1.1v-2.8h-0.5v-0.9h0.5v-0.5
		c0-0.9,0.5-1.2,1.4-1.2c0.2,0,0.3,0,0.5,0l0.1,0.9C266.1,14.1,266,14.1,265.8,14.1z"/>
	<path id="XMLID_467_" d="M245.1,26.3V24c0-0.3-0.1-0.4-0.4-0.4c-0.2,0-0.4,0.1-0.6,0.3v2.4H243V24c0-0.3-0.1-0.4-0.4-0.4
		c-0.2,0-0.4,0.1-0.6,0.3v2.4h-1.1v-3.7h1l0.1,0.5c0.3-0.3,0.7-0.6,1.1-0.6c0.5,0,0.8,0.2,0.9,0.6c0.3-0.3,0.7-0.6,1.1-0.6
		c0.7,0,1,0.4,1,1.1v2.6H245.1z"/>
	<path id="XMLID_464_" d="M249.1,26.3l-0.1-0.5c-0.3,0.3-0.7,0.5-1.2,0.5c-0.6,0-1-0.4-1-1c0-0.9,0.7-1.3,2.1-1.4v-0.1
		c0-0.3-0.2-0.5-0.6-0.5c-0.4,0-0.8,0.1-1.2,0.3l-0.1-0.9c0.4-0.2,0.9-0.3,1.5-0.3c1,0,1.5,0.3,1.5,1.3v2.5H249.1z M248.9,24.5
		c-0.8,0.1-1,0.4-1,0.7c0,0.2,0.1,0.4,0.4,0.4c0.2,0,0.4-0.1,0.6-0.3V24.5z"/>
	<path id="XMLID_462_" d="M253,26.4l-1.1-1.8v1.7h-1.1v-5.2l1.1-0.2v3.2l1-1.5h1.2l-1.2,1.7l1.2,1.9L253,26.4z"/>
	<path id="XMLID_459_" d="M255.2,22.2c-0.4,0-0.6-0.2-0.6-0.6c0-0.4,0.3-0.6,0.6-0.6c0.4,0,0.6,0.2,0.6,0.6
		C255.9,21.9,255.6,22.2,255.2,22.2z M254.6,26.3v-3.7h1.1v3.7H254.6z"/>
	<path id="XMLID_457_" d="M258.7,26.3V24c0-0.3-0.1-0.4-0.4-0.4c-0.2,0-0.4,0.1-0.6,0.3v2.4h-1.1v-3.7h1l0.1,0.5
		c0.3-0.3,0.7-0.6,1.1-0.6c0.7,0,1,0.4,1,1.1v2.6H258.7z"/>
	<path id="XMLID_453_" d="M264,22.6l0.1,0.8c0,0-0.6,0-0.6,0c0,0.1,0.1,0.3,0.1,0.4c0,0.8-0.7,1.3-1.5,1.3c-0.1,0-0.2,0-0.3,0
		c-0.1,0.1-0.1,0.1-0.1,0.2c0,0.1,0.1,0.1,0.6,0.2l0.7,0c0.7,0.1,1.2,0.3,1.2,0.9c0,0.8-0.9,1.3-2.1,1.3c-1,0-1.8-0.3-1.8-0.9
		c0-0.3,0.2-0.6,0.6-0.8c-0.1-0.1-0.2-0.3-0.2-0.4c0-0.2,0.2-0.5,0.5-0.7c-0.5-0.2-0.7-0.6-0.7-1.1c0-0.8,0.7-1.3,1.5-1.3
		c0.5,0,0.8,0.1,1.1,0.4L264,22.6z M261.2,26.7c0,0.3,0.3,0.4,0.9,0.4c0.6,0,0.9-0.2,0.9-0.4c0-0.2-0.1-0.2-0.5-0.3l-0.5,0
		c-0.3,0-0.4,0-0.6-0.1C261.2,26.4,261.2,26.5,261.2,26.7z M262,23.2c-0.3,0-0.5,0.3-0.5,0.6c0,0.3,0.2,0.6,0.5,0.6
		c0.3,0,0.5-0.3,0.5-0.6C262.6,23.5,262.4,23.2,262,23.2z"/>
	<path id="XMLID_451_" d="M245.1,34.1v-2.3c0-0.3-0.1-0.4-0.4-0.4c-0.2,0-0.4,0.1-0.6,0.3v2.4H243v-2.3c0-0.3-0.1-0.4-0.4-0.4
		c-0.2,0-0.4,0.1-0.6,0.3v2.4h-1.1v-3.7h1l0.1,0.5c0.3-0.3,0.7-0.6,1.1-0.6c0.5,0,0.8,0.2,0.9,0.6c0.3-0.3,0.7-0.6,1.1-0.6
		c0.7,0,1,0.4,1,1.1v2.6H245.1z"/>
	<path id="XMLID_448_" d="M250.2,32.5H248c0.1,0.6,0.4,0.8,0.9,0.8c0.4,0,0.8-0.2,1.2-0.4l0.1,0.8c-0.4,0.3-0.9,0.4-1.5,0.4
		c-1.1,0-1.9-0.6-1.9-1.9c0-1.2,0.7-1.9,1.7-1.9c1.1,0,1.6,0.8,1.6,1.9C250.2,32.3,250.2,32.5,250.2,32.5z M248.5,31.1
		c-0.3,0-0.5,0.3-0.6,0.8h1.2C249.1,31.3,248.9,31.1,248.5,31.1z"/>
	<path id="XMLID_446_" d="M255,34.1v-2.3c0-0.3-0.1-0.4-0.4-0.4c-0.2,0-0.4,0.1-0.6,0.3v2.4h-1.1v-2.3c0-0.3-0.1-0.4-0.4-0.4
		c-0.2,0-0.4,0.1-0.6,0.3v2.4h-1.1v-3.7h1l0.1,0.5c0.3-0.3,0.7-0.6,1.1-0.6c0.5,0,0.8,0.2,0.9,0.6c0.3-0.3,0.7-0.6,1.1-0.6
		c0.7,0,1,0.4,1,1.1v2.6H255z"/>
	<path id="XMLID_443_" d="M258.5,34.1c-1,0-1.8-0.7-1.8-1.9c0-1.2,0.8-1.9,1.8-1.9c1,0,1.8,0.7,1.8,1.9
		C260.2,33.4,259.5,34.1,258.5,34.1z M258.5,31.2c-0.4,0-0.7,0.4-0.7,1c0,0.6,0.2,1,0.7,1c0.4,0,0.7-0.4,0.7-1
		C259.2,31.6,258.9,31.2,258.5,31.2z"/>
	<path id="XMLID_441_" d="M262,32v2h-1.1v-3.7h1l0.1,0.7c0.2-0.4,0.5-0.8,1.1-0.8l0.2,1.2C262.7,31.5,262.3,31.7,262,32z"/>
	<path id="XMLID_438_" d="M264.3,29.9c-0.4,0-0.6-0.2-0.6-0.6c0-0.4,0.3-0.6,0.6-0.6c0.4,0,0.6,0.2,0.6,0.6
		C264.9,29.7,264.6,29.9,264.3,29.9z M263.7,34.1v-3.7h1.1v3.7H263.7z"/>
	<path id="XMLID_435_" d="M268.8,32.5h-2.2c0.1,0.6,0.4,0.8,0.9,0.8c0.4,0,0.8-0.2,1.2-0.4l0.1,0.8c-0.4,0.3-0.9,0.4-1.5,0.4
		c-1.1,0-1.9-0.6-1.9-1.9c0-1.2,0.7-1.9,1.7-1.9c1.1,0,1.6,0.8,1.6,1.9C268.8,32.3,268.8,32.5,268.8,32.5z M267.2,31.1
		c-0.3,0-0.5,0.3-0.6,0.8h1.2C267.7,31.3,267.5,31.1,267.2,31.1z"/>
	<path id="XMLID_433_" d="M270.8,34.1c-0.6,0-1.1-0.2-1.5-0.4l0.1-0.9c0.4,0.3,1,0.4,1.4,0.4c0.3,0,0.5-0.1,0.5-0.3
		c0-0.2-0.1-0.3-0.6-0.4c-0.9-0.2-1.3-0.5-1.3-1.2c0-0.7,0.5-1.1,1.4-1.1c0.5,0,1,0.1,1.4,0.3l-0.1,0.9c-0.4-0.2-0.9-0.3-1.2-0.3
		c-0.3,0-0.4,0.1-0.4,0.2c0,0.2,0.1,0.2,0.6,0.4c1,0.3,1.3,0.5,1.3,1.2C272.3,33.7,271.8,34.1,270.8,34.1z"/>
</g>
<g>
	<g>
		<path d="M53.3,16.4h-6.2c-0.2,0-0.4-0.1-0.3-0.2c0-0.1,0.2-0.3,0.4-0.3l1-0.1c0.4-0.1,0.9-0.5,1-1.1l1.2-5.5l1.1-5.5
			c0.1-0.6-0.1-1-0.6-1.1l-0.9-0.1c-0.2,0-0.4-0.1-0.3-0.3c0-0.1,0.2-0.2,0.4-0.2h6.2c0.2,0,0.4,0.1,0.3,0.2c0,0.1-0.2,0.3-0.4,0.3
			l-1,0.1c-0.4,0.1-0.9,0.5-1,1.1L53,9.2l-1.2,5.5c-0.1,0.6,0.1,1,0.6,1.1l0.9,0.1c0.2,0,0.4,0.1,0.3,0.3
			C53.7,16.4,53.5,16.4,53.3,16.4z"/>
		<path d="M65.9,16.4h-4c-0.2,0-0.3-0.1-0.3-0.2c0-0.1,0.2-0.2,0.4-0.3c0.2-0.2,0.4-0.5,0.5-1.2l1.1-5.2c0.3-1.4-0.1-2.1-1.2-2.1
			c-0.9,0-2.4,0.7-2.6,1.9l-1.2,5.4c-0.1,0.6,0.1,1,0.5,1.1l0.5,0.1c0.2,0,0.4,0.1,0.3,0.3c0,0.1-0.2,0.2-0.4,0.2h-4.9
			c-0.2,0-0.4-0.1-0.3-0.2c0-0.1,0.2-0.2,0.4-0.3l0.5-0.1c0.5-0.1,0.9-0.5,1-1.1L57.7,8c0.1-0.6-0.1-1-0.6-1.1l-0.9-0.1
			c-0.2,0-0.4-0.1-0.3-0.3c0-0.1,0.2-0.2,0.4-0.2h3.5c0.2,0,0.3,0.1,0.3,0.3l0.1,0.5c0,0.1,0.1,0.1,0.2,0c0.8-0.7,1.9-1.1,2.9-1.1
			c2,0,3.1,1.3,2.6,3.8l-1,4.8c-0.1,0.6,0.2,1,0.6,1.1L66,16c0.2,0.1,0.3,0.1,0.3,0.3C66.3,16.4,66.1,16.4,65.9,16.4z"/>
		<path d="M77.8,6.8c-0.3,0.1-0.5,0.3-0.8,0.6l-5.7,9c-0.1,0.1-0.4,0.2-0.8,0.2c-0.3,0-0.6-0.1-0.6-0.2l-2-9
			c-0.1-0.3-0.3-0.5-0.5-0.5l-0.5-0.1c-0.2,0-0.4-0.1-0.3-0.3c0-0.1,0.2-0.2,0.4-0.2h4.8c0.2,0,0.4,0,0.3,0.2c0,0.2-0.2,0.2-0.4,0.3
			L71,7c-0.3,0.1-0.4,0.2-0.4,0.5c0,0.1,0,0.3,0,0.4l0.9,5.5c0,0.1,0.2,0.1,0.3,0L75,7.8c0.1-0.1,0.1-0.2,0.1-0.4
			c0-0.2,0-0.4-0.2-0.5l-0.6-0.2c-0.2,0-0.4-0.1-0.3-0.3c0-0.1,0.2-0.2,0.4-0.2h3.4c0.2,0,0.4,0.1,0.3,0.2C78.1,6.7,78,6.7,77.8,6.8
			z"/>
		<path d="M85.1,11.3h-5.2c-0.3,0-0.5,0.2-0.6,0.5c-0.5,2.6,0.4,3.7,1.8,3.7c1.1,0,2.3-0.8,2.9-1.5c0.1-0.1,0.2-0.1,0.2,0l0.4,0.4
			c0.1,0.1,0,0.1,0,0.2c-0.9,1.2-2.6,2.1-4.2,2.1c-2.2,0-4.3-1.5-3.5-5.3c0.7-3.2,3.2-5.3,5.8-5.3c2.1,0,3.8,1.3,3.2,4.5
			C85.7,10.9,85.4,11.3,85.1,11.3z M82.5,7c-1.2,0-2.2,1.2-2.7,3.1c-0.1,0.3,0,0.4,0.3,0.4c0,0,0.7,0,1.2,0h0.5c0.5,0,0.8,0,1-0.1
			c0.5-0.1,0.7-0.4,0.8-0.7C83.8,8.1,83.5,7,82.5,7z"/>
		<path d="M89.6,16.7c-1.3,0-2.9-0.3-3.5-0.5c-0.2,0-0.3-0.1-0.2-0.3c0.1-0.4,0.1-0.9,0.2-1.3c0.1-0.4,0.1-0.9,0.2-1.3
			c0-0.1,0.1-0.3,0.3-0.3c0.1,0,0.3,0.1,0.3,0.3c0.3,2,1.2,2.5,3.1,2.5c0.9,0,2.1-0.5,2.3-1.5c0.5-2.5-5.7-1.4-4.9-5.3
			c0.4-1.8,1.8-2.8,4.2-2.8c1.3,0,3.5,0.3,3.5,0.3c0.1,0,0.2,0.1,0.2,0.2l-0.5,2.5c0,0.1-0.1,0.3-0.3,0.3c-0.1,0-0.2-0.1-0.2-0.2
			C94.1,7.4,93.2,7,91.5,7c-1,0-1.9,0.4-2.1,1.4c-0.4,2.1,5.8,1.2,5,5.2C93.7,16.1,91.6,16.7,89.6,16.7z"/>
		<path d="M101.8,16c-0.6,0.4-1.5,0.6-2.5,0.6c-1.9,0-3-0.6-2.7-2.2L98,7.5h-1.9c-0.1,0-0.2-0.1-0.2-0.2l0.2-0.8
			c0-0.1,0.1-0.2,0.3-0.2h1.5c0.2,0,0.5-0.1,0.8-0.6l2-2.7c0.1-0.1,0.3-0.2,0.4-0.2c0.1,0,0.3,0.1,0.2,0.3l-0.7,3.2h2.7
			c0.2,0,0.2,0,0.2,0.2l-0.2,0.9c0,0.1-0.1,0.2-0.3,0.2l-2.7,0L99,13.9c-0.2,1.1-0.2,1.8,1.1,1.8c0.5,0,1.1-0.2,1.4-0.4
			c0.1,0,0.2-0.1,0.2,0l0.1,0.5C101.9,15.9,101.9,15.9,101.8,16z"/>
		<path d="M106.5,16.7c-3.1,0-4.2-2.6-3.7-5.3c0.6-2.8,2.8-5.3,5.9-5.3c3.1,0,4.3,2.5,3.7,5.3C111.8,14.1,109.6,16.7,106.5,16.7z
			 M108.5,7.2c-1.9,0-2.7,2.1-3.1,3.9c-0.4,1.8-0.7,4.7,1.4,4.7c1.9,0,2.7-2.3,3.1-4C110.3,9.8,110.6,7.2,108.5,7.2z"/>
		<path d="M121.6,8.8c-0.1,0.2-0.2,0.4-0.4,0.4c-0.2,0-0.2-0.5-0.2-0.7c0-0.5-0.4-0.9-1.1-0.9c-0.8,0-1.7,0.5-2.2,1.2
			c-0.2,0.3-0.4,0.7-0.5,1l-1.1,5c-0.1,0.6,0.2,1,0.6,1.1l0.5,0.1c0.2,0.1,0.4,0.1,0.3,0.3c0,0.1-0.2,0.2-0.4,0.2h-4.9
			c-0.2,0-0.4-0.1-0.3-0.2c0-0.1,0.2-0.2,0.4-0.3l0.5-0.1c0.5-0.1,0.9-0.5,1-1.1l1.4-6.7c0.1-0.6-0.1-1-0.6-1.1l-0.7-0.1
			c-0.2,0-0.3-0.1-0.3-0.3c0-0.1,0.2-0.2,0.4-0.2h3c0.2,0,0.3,0.1,0.3,0.3l0.1,1c0,0.1,0.2,0.2,0.3,0c0.9-1.1,2.2-1.6,3.5-1.6
			c0.2,0,0.6,0.1,0.8,0.1c0.1,0,0.4,0.2,0.3,0.4L121.6,8.8z"/>
		<path d="M125,16.7c-1.3,0-2.9-0.3-3.5-0.5c-0.2,0-0.3-0.1-0.2-0.3c0.1-0.4,0.1-0.9,0.2-1.3c0.1-0.4,0.1-0.9,0.2-1.3
			c0-0.1,0.1-0.3,0.3-0.3c0.1,0,0.3,0.1,0.3,0.3c0.3,2,1.2,2.5,3.1,2.5c0.9,0,2.1-0.5,2.3-1.5c0.5-2.5-5.7-1.4-4.9-5.3
			c0.4-1.8,1.8-2.8,4.2-2.8c1.3,0,3.5,0.3,3.5,0.3c0.1,0,0.2,0.1,0.2,0.2l-0.5,2.5c0,0.1-0.1,0.3-0.3,0.3c-0.1,0-0.2-0.1-0.2-0.2
			c-0.2-1.8-1.1-2.2-2.8-2.2c-1,0-1.9,0.4-2.1,1.4c-0.4,2.1,5.8,1.2,5,5.2C129.1,16.1,127,16.7,125,16.7z"/>
	</g>
	<g>
		<path class="st1" d="M39.5,33.7c-0.3,1.5-1.8,2.7-3.3,2.7H2.8c-1.5,0-2.5-1.2-2.2-2.7L6.5,3.3c0.3-1.5,1.8-2.7,3.3-2.7h33.4
			c1.5,0,2.5,1.2,2.2,2.7L39.5,33.7z"/>
		<g>
			<path class="st2" d="M38.8,10c-0.5-0.6-1.3-0.9-2.2-0.9h-8.1l0.9-4.3H10.8L9.8,10h3.8c0.3,0,0.9,0,1.2,0.3
				c0.1,0.1,0.2,0.2,0.2,0.6c0,0.2,0,0.4-0.1,0.7c0,0-2.5,12.3-2.7,13.1c-0.4,1.4-1.1,2.1-2.5,2.1H6.3l-1.1,5.3h18.6l0.9-4.4h1.8
				c1,0,2-0.1,3-0.3c0,0.2-0.1,0.3-0.1,0.3l1.2,0h5.4l2.2-10.7h-9.6l-0.8,4.3c0,0,2,0,2.9,0c-0.1,0.3-0.1,0.5-0.1,0.8
				c-0.2,1-0.7,1.4-1.6,1.5c-0.1,0-3.2,0-3.3,0c0,0,0,0,0,0c0-0.1,0-0.1,0-0.2c0,0,2-9.4,2-9.6c0.1-0.5,0.2-0.6,0.2-0.7
				c0.1,0,0.2,0,0.4,0l0.1,0h4c0,0,0,0,0,0c0,0,0,0,0,0l0,0.1c0,0.2-0.1,0.8-0.2,1.2L32,15.5h6.6l0.1-0.7c0-0.1,0.4-1.9,0.6-2.8l0,0
				C39.5,11.3,39.3,10.6,38.8,10z"/>
			<path class="st3" d="M20.8,27.8c-1.2,0-2.8-0.5-2.3-2.8c0,0,2.7-13.1,2.7-13.1c0.5-2,1.7-2.7,3.3-2.7h3.1l0.7-3.3H11.6L11,9.1
				h2.6c0.4,0,1.4,0,2,0.7c0.4,0.5,0.6,1.2,0.4,2.1l-2.7,13.1c-0.4,1.6-1.4,2.7-3.3,2.7H7.1l-0.7,3.4h16.7l0.7-3.4H20.8z"/>
			<path class="st4" d="M20.7,26.9c-0.8,0-1.7-0.1-1.3-1.7L22.1,12c0.3-1.4,1.2-2,2.4-2h12.1c1.1,0,1.9,0.8,1.7,1.8
				c-0.2,0.9-0.6,2.8-0.6,2.8h-4.7c0,0,0.2-1,0.2-1.3c0.2-0.9-0.3-1.2-1-1.2h-4c-0.8,0-1.3-0.1-1.6,1.4l-2,9.6
				c-0.1,0.6-0.1,1.3,0.9,1.4h3.4c1.6-0.1,2.2-1.2,2.4-2.2c0.1-0.7,0.4-1.9,0.4-1.9h-2.9l0.5-2.5h7.6l-1.9,8.9h-4.7
				c0,0,0.2-1,0.3-1.5c-0.5,1-1.8,1.5-4.4,1.5H20.7z"/>
		</g>
	</g>
	<g>
		<path d="M57.9,25.7l-0.8,0.2c-0.4,0.1-0.9,0.5-1,1.1l-0.9,4.4c-0.1,0.2-0.1,0.5,0.1,0.7c0.1,0,0.1,0.1,0.1,0.2
			c0,0.2-0.1,0.2-0.3,0.2c-0.1,0-0.2,0-0.3-0.1l-1.5-0.7c-0.2-0.1-0.4-0.1-0.6,0c-0.6,0.4-1.8,0.7-2.8,0.7c-3.7,0-6-2.4-4.9-7.5
			c1-4.6,4.2-7.4,7.8-7.4c1.4,0,2.9,0.2,4.2,0.3c0.1,0,0.2,0.2,0.2,0.3l-0.8,3.8c0,0.2-0.2,0.3-0.3,0.3c-0.1,0-0.2-0.1-0.2-0.3
			c-0.1-2.4-1-3.5-3.3-3.5c-3.1,0-4.3,4.5-4.8,6.7c-0.5,2.4-0.6,6,2.4,6c1.1,0,2.7-1,3.1-2.5l0.5-2.2c0.1-0.5,0-0.7-0.1-0.9
			c-0.1-0.2-0.3-0.2-0.2-0.4c0-0.1,0.1-0.2,0.4-0.2H58c0.2,0,0.3,0.1,0.3,0.2C58.2,25.6,58.1,25.7,57.9,25.7z"/>
		<path d="M66.7,24.6c-0.1,0.2-0.2,0.4-0.4,0.4c-0.2,0-0.2-0.5-0.2-0.7c0-0.5-0.4-0.9-1.1-0.9c-0.8,0-1.7,0.5-2.2,1.2
			c-0.2,0.3-0.4,0.7-0.5,1l-1.1,5c-0.1,0.6,0.2,1,0.6,1.1l0.5,0.1c0.2,0.1,0.4,0.1,0.3,0.3c0,0.1-0.2,0.2-0.4,0.2h-4.9
			c-0.2,0-0.4-0.1-0.3-0.2c0-0.1,0.2-0.2,0.4-0.3l0.5-0.1c0.5-0.1,0.9-0.5,1-1.1l1.4-6.7c0.1-0.6-0.1-1-0.6-1.1L59,22.7
			c-0.2,0-0.4-0.1-0.3-0.3c0-0.1,0.2-0.2,0.4-0.2h3c0.2,0,0.3,0.1,0.3,0.3l0.1,1c0,0.1,0.2,0.2,0.3,0c0.9-1.1,2.2-1.6,3.5-1.6
			c0.2,0,0.6,0.1,0.8,0.1c0.1,0,0.4,0.2,0.3,0.4L66.7,24.6z"/>
		<path d="M70.3,32.5c-3.1,0-4.2-2.6-3.7-5.3c0.6-2.8,2.8-5.3,5.9-5.3c3.1,0,4.3,2.5,3.7,5.3C75.7,30,73.4,32.5,70.3,32.5z M72.3,23
			c-1.9,0-2.7,2.1-3.1,3.9c-0.4,1.8-0.7,4.7,1.4,4.7c1.9,0,2.7-2.3,3.1-4C74.1,25.7,74.4,23,72.3,23z"/>
		<path d="M87,32.3h-3.3c-0.2,0-0.3-0.1-0.3-0.3l-0.1-0.5c0-0.1-0.1-0.1-0.2,0c-0.8,0.7-1.9,1.1-2.9,1.1c-2,0-3.1-1.3-2.6-3.8l1-4.8
			c0.1-0.6-0.2-1-0.6-1.1l-0.5-0.1c-0.2-0.1-0.3-0.1-0.3-0.3c0-0.1,0.2-0.2,0.4-0.2h4c0.2,0,0.3,0.1,0.3,0.2c0,0.1-0.2,0.2-0.4,0.3
			c-0.2,0.2-0.4,0.5-0.5,1.2L80,29.1c-0.3,1.4,0.1,2.1,1.2,2.1c0.9,0,2.4-0.7,2.6-1.9l1.2-5.4c0.1-0.6-0.1-1-0.5-1.1l-0.5-0.1
			c-0.2,0-0.4-0.1-0.3-0.3c0-0.1,0.2-0.2,0.4-0.2h3.4c0.2,0,0.3,0.1,0.3,0.3l-0.4,1.6l-1.4,6.6c-0.1,0.6,0.1,1,0.6,1.1l0.7,0.1
			c0.2,0,0.4,0.1,0.3,0.3C87.4,32.2,87.2,32.3,87,32.3z"/>
		<path d="M93.5,32.5c-0.9,0-1.4-0.1-2-0.3c-0.1,0-0.2,0-0.3,0.2l-0.5,1.9c-0.1,0.6,0.1,1,0.6,1.1l0.7,0.1c0.2,0,0.4,0.1,0.3,0.3
			c0,0.1-0.2,0.2-0.4,0.2h-4.2c-0.2,0-0.3-0.1-0.3-0.2c0-0.1,0.2-0.2,0.4-0.3c0.2-0.2,0.4-0.5,0.5-1.2l2.3-10.4
			c0.1-0.6-0.1-1-0.5-1.1l-0.7-0.1c-0.2,0-0.4-0.1-0.3-0.3c0-0.1,0.2-0.2,0.4-0.2h3.1c0.2,0,0.3,0.1,0.3,0.3l0.1,0.5
			c0,0.1,0.1,0.1,0.1,0.1c0,0,0.1,0,0.2-0.1c0.9-0.7,1.8-1,2.6-1c2.2,0,3.8,1.5,2.9,5.4C98.3,30.6,95.8,32.5,93.5,32.5z M95.3,23.2
			c-0.8,0-1.6,0.5-2.3,1.3c-0.1,0.2-0.3,0.5-0.3,0.7l-0.9,4c-0.4,1.7,0.1,2.4,1.5,2.4c1.1,0,2.4-1.2,3.1-4.3
			C97.1,24.3,96.4,23.2,95.3,23.2z"/>
	</g>
</g>
</svg>
