<?xml version="1.0" encoding="utf-8"?>
<!-- Generator: Adobe Illustrator 20.1.0, SVG Export Plug-In . SVG Version: 6.00 Build 0)  -->
<svg version="1.1" id="IG_EN" xmlns="http://www.w3.org/2000/svg" xmlns:xlink="http://www.w3.org/1999/xlink" x="0px" y="0px"
	 viewBox="0 0 243.2 70.9" style="enable-background:new 0 0 243.2 70.9;" xml:space="preserve">
<style type="text/css">
	.st0{fill:#024371;stroke:#FFFFFF;stroke-width:1.8425;}
	.st1{fill:#FFFFFF;}
	.st2{fill:#024371;}
</style>
<g>
	<g>
		<path d="M100.4,31.1H89c-0.4,0-0.7-0.1-0.6-0.4s0.4-0.5,0.8-0.5l1.9-0.3c0.8-0.1,1.6-0.9,1.9-2l2.2-10.2l2.1-10.1
			c0.2-1.1-0.3-1.9-1-2l-1.7-0.3C94.2,5.3,94,5,94,4.8c0.1-0.3,0.4-0.4,0.8-0.4h11.4c0.4,0,0.7,0.1,0.6,0.4s-0.4,0.5-0.8,0.5
			l-1.9,0.3c-0.8,0.1-1.6,0.9-1.9,2L100,17.8L97.9,28c-0.2,1.1,0.3,1.9,1,2l1.7,0.3c0.4,0,0.6,0.3,0.6,0.5S100.8,31.1,100.4,31.1z"
			/>
		<path d="M123.6,31.1h-7.4c-0.4,0-0.5-0.1-0.5-0.4c0.1-0.3,0.4-0.4,0.7-0.6c0.4-0.3,0.7-0.9,1-2.3l2-9.5c0.5-2.6-0.2-3.9-2.2-3.9
			c-1.7,0-4.4,1.4-4.8,3.5l-2.1,10c-0.2,1.1,0.2,1.8,0.9,2l0.9,0.3c0.3,0.1,0.6,0.3,0.6,0.5c-0.1,0.3-0.4,0.4-0.8,0.4h-9
			c-0.4,0-0.7-0.1-0.6-0.4s0.4-0.4,0.8-0.5l1-0.3c0.8-0.2,1.6-0.9,1.8-2l2.6-12.4c0.2-1.1-0.2-1.8-1-2l-1.7-0.3
			c-0.3,0-0.7-0.2-0.6-0.5s0.4-0.4,0.8-0.4h6.4c0.4,0,0.5,0.2,0.6,0.5l0.3,1c0,0.2,0.2,0.2,0.4,0c1.4-1.4,3.4-2,5.3-2
			c3.6,0,5.7,2.5,4.7,7.1l-1.9,8.9c-0.2,1.1,0.3,1.8,1,2l0.9,0.3c0.3,0.1,0.6,0.3,0.6,0.5C124.4,31,124,31.1,123.6,31.1z"/>
		<path d="M145.6,13.4c-0.5,0.2-1,0.5-1.4,1.2l-10.5,16.6c-0.2,0.3-0.8,0.4-1.4,0.4c-0.5,0-1.1-0.2-1.1-0.4l-3.7-16.6
			c-0.1-0.5-0.5-0.8-1-0.9l-1-0.2c-0.3-0.1-0.7-0.2-0.6-0.5c0-0.2,0.4-0.4,0.8-0.4h8.9c0.4,0,0.7,0.1,0.6,0.4
			c-0.1,0.3-0.4,0.4-0.8,0.5l-1.2,0.3c-0.5,0.1-0.7,0.4-0.8,0.8c0,0.2-0.1,0.5,0,0.7l1.6,10.2c0,0.2,0.4,0.2,0.5,0l6-10.2
			c0.1-0.2,0.2-0.4,0.3-0.7c0.1-0.4,0-0.7-0.4-0.8l-1.2-0.3c-0.4-0.1-0.7-0.2-0.6-0.5c0.1-0.3,0.4-0.4,0.8-0.4h6.2
			c0.4,0,0.7,0.1,0.6,0.4C146.2,13.1,145.9,13.2,145.6,13.4z"/>
		<path d="M159.1,21.7h-9.6c-0.5,0-1,0.4-1.1,0.9c-1,4.7,0.8,6.8,3.2,6.8c2,0,4.2-1.5,5.3-2.7c0.2-0.2,0.3-0.2,0.4-0.1l0.7,0.7
			c0.1,0.1,0.1,0.2,0,0.4c-1.7,2.3-4.8,3.9-7.8,3.9c-4,0-7.9-2.8-6.4-9.9c1.2-5.8,5.9-9.7,10.7-9.7c3.8,0,7.1,2.4,5.8,8.3
			C160.2,21,159.6,21.7,159.1,21.7z M154.2,13.7c-2.2,0-4,2.2-5.1,5.6c-0.1,0.5,0,0.8,0.5,0.8c0,0,1.3,0,2.3,0h0.9
			c0.8,0,1.4,0,1.9-0.2c0.9-0.2,1.2-0.7,1.4-1.4C156.7,15.8,156.1,13.7,154.2,13.7z"/>
		<path d="M167.4,31.6c-2.4,0-5.4-0.6-6.5-0.9c-0.3-0.1-0.5-0.3-0.4-0.6c0.1-0.7,0.3-1.7,0.4-2.5c0.1-0.8,0.2-1.7,0.3-2.4
			c0-0.3,0.2-0.5,0.5-0.5s0.5,0.2,0.5,0.5c0.5,3.7,2.2,4.5,5.8,4.5c1.6,0,3.9-0.8,4.3-2.8c1-4.7-10.5-2.6-8.9-9.7
			c0.7-3.3,3.3-5.2,7.7-5.2c2.3,0,6.4,0.5,6.4,0.5c0.3,0,0.4,0.2,0.3,0.4l-0.9,4.7c0,0.2-0.2,0.5-0.5,0.5c-0.2,0-0.3-0.2-0.4-0.4
			c-0.4-3.3-1.9-4-5.2-4c-1.9,0-3.6,0.8-4,2.5c-0.8,3.8,10.7,2.2,9.1,9.6C174.9,30.6,171.1,31.6,167.4,31.6z"/>
		<path d="M189.8,30.3c-1.1,0.7-2.7,1.1-4.6,1.1c-3.6,0-5.6-1.1-5-4l2.7-12.6h-3.5c-0.2,0-0.4-0.2-0.4-0.4l0.3-1.4
			c0.1-0.3,0.3-0.4,0.5-0.4h2.8c0.4,0,0.9-0.2,1.5-1l3.6-5.1c0.2-0.3,0.5-0.4,0.8-0.4s0.5,0.2,0.4,0.6l-1.3,5.9h5
			c0.3,0,0.4,0.1,0.4,0.4l-0.3,1.6c-0.1,0.3-0.3,0.4-0.5,0.4l-5-0.1l-2.5,11.7c-0.4,2-0.4,3.4,2,3.4c0.9,0,2.1-0.4,2.7-0.8
			c0.2-0.1,0.4-0.1,0.4,0l0.1,0.8C190,30.1,189.9,30.2,189.8,30.3z"/>
		<path d="M198.5,31.6c-5.7,0-7.8-4.7-6.7-9.8s5.2-9.7,10.9-9.7s7.8,4.6,6.8,9.7C208.3,26.9,204.2,31.6,198.5,31.6z M202.2,14
			c-3.6,0-5,3.8-5.7,7.1s-1.2,8.7,2.5,8.7c3.6,0,5-4.3,5.7-7.5C205.4,19,206,14,202.2,14z"/>
		<path d="M226.4,17c-0.1,0.4-0.3,0.7-0.7,0.7s-0.3-1-0.4-1.4c-0.1-1-0.7-1.7-2.1-1.7c-1.5,0-3.1,1-4.1,2.2
			c-0.4,0.5-0.8,1.3-0.9,1.9l-2,9.3c-0.2,1.1,0.3,1.8,1,2l0.9,0.3c0.4,0.1,0.6,0.3,0.6,0.5c-0.1,0.3-0.4,0.4-0.8,0.4h-9.1
			c-0.4,0-0.7-0.1-0.6-0.4c0.1-0.3,0.4-0.4,0.8-0.5l1-0.3c0.8-0.2,1.6-0.9,1.8-2l2.6-12.4c0.2-1.1-0.3-1.8-1-2l-1.3-0.3
			c-0.4-0.1-0.6-0.3-0.6-0.5c0.1-0.3,0.4-0.4,0.8-0.4h5.6c0.4,0,0.6,0.2,0.6,0.5l0.2,1.8c0,0.2,0.3,0.3,0.5,0.1c1.7-2,4-2.9,6.4-2.9
			c0.4,0,1.1,0.1,1.4,0.3c0.2,0.1,0.7,0.3,0.6,0.7L226.4,17z"/>
		<path d="M232.6,31.6c-2.4,0-5.4-0.6-6.5-0.9c-0.3-0.1-0.5-0.3-0.4-0.6c0.1-0.7,0.3-1.7,0.4-2.5c0.1-0.8,0.2-1.7,0.3-2.4
			c0-0.3,0.2-0.5,0.5-0.5s0.5,0.2,0.5,0.5c0.5,3.7,2.2,4.5,5.8,4.5c1.6,0,3.9-0.8,4.3-2.8c1-4.7-10.5-2.6-8.9-9.7
			c0.7-3.3,3.3-5.2,7.7-5.2c2.3,0,6.4,0.5,6.4,0.5c0.3,0,0.4,0.2,0.3,0.4l-0.9,4.7c0,0.2-0.2,0.5-0.5,0.5c-0.2,0-0.3-0.2-0.4-0.4
			c-0.4-3.3-1.9-4-5.2-4c-1.9,0-3.6,0.8-4,2.5c-0.8,3.8,10.7,2.2,9.1,9.6C240.1,30.6,236.3,31.6,232.6,31.6z"/>
	</g>
	<g>
		<path class="st0" d="M75,62.9c-0.5,2.8-3.3,5.1-6,5.1H7.4c-2.8,0-4.6-2.3-4.1-5.1L14.2,7c0.5-2.8,3.3-5.1,6-5.1h61.6
			c2.8,0,4.6,2.3,4.1,5.1L75,62.9z"/>
		<g>
			<path class="st1" d="M73.8,19.4c-0.9-1.1-2.4-1.7-4-1.7H55l1.6-7.9H22.3l-2,9.6h7.1c0.6,0,1.6,0,2.2,0.6c0.1,0.1,0.4,0.4,0.4,1.2
				c0,0.3,0,0.8-0.1,1.3c0,0-4.7,22.7-4.9,24.1c-0.7,2.7-2.1,3.8-4.5,3.8h-6.4l-2,9.7h34.3L48,52h3.3c1.8,0,3.8-0.1,5.5-0.6
				c-0.1,0.3-0.1,0.6-0.1,0.6h2.2h10L73,32.2H55.2l-1.5,8c0,0,3.8,0,5.3,0c-0.1,0.5-0.2,1-0.3,1.4c-0.4,1.8-1.3,2.6-3,2.7
				c-0.2,0-6,0-6.1,0h-0.1c0-0.1,0-0.2,0.1-0.5c0,0,3.6-17.3,3.7-17.7c0.2-0.9,0.4-1.2,0.4-1.3c0.1,0,0.4,0,0.7,0h0.2H62
				c0,0,0,0,0.1,0l0,0v0.1c0,0.3-0.3,1.5-0.4,2.2l-0.5,2.1h12.2l0.3-1.3c0-0.1,0.7-3.4,1-5.1l0,0C75,21.7,74.7,20.4,73.8,19.4z"/>
			<path class="st2" d="M40.6,52c-2.3,0-5.2-0.9-4.3-5.2l5-24.2c1-3.7,3.1-5,6.1-5h5.7l1.3-6.2H23.7l-1.3,6.2h4.8
				c0.7,0,2.5,0,3.6,1.3c0.8,0.9,1,2.2,0.7,3.9l-5,24.2c-0.8,3-2.6,5-6.1,5h-5.1L14,58.3h30.7l1.3-6.4h-5.4V52z"/>
			<path class="st2" d="M40.5,50.3c-1.5,0-3-0.3-2.5-3.1L43,23c0.5-2.6,2.3-3.7,4.5-3.7h22.4c2.1,0,3.5,1.4,3.1,3.3
				c-0.3,1.7-1,5.1-1,5.1h-8.6c0,0,0.4-1.8,0.4-2.3c0.4-1.7-0.6-2.2-1.9-2.1h-7.4c-1.5,0-2.4-0.2-3,2.5l-3.7,17.8
				c-0.2,1.2-0.1,2.5,1.7,2.6h6.3c3-0.2,4.1-2.1,4.5-4c0.2-1.3,0.7-3.5,0.7-3.5h-5.3l0.9-4.6h14l-3.4,16.3h-8.6c0,0,0.4-1.9,0.6-2.7
				c-0.9,1.8-3.3,2.7-8.1,2.7L40.5,50.3L40.5,50.3z"/>
		</g>
	</g>
	<g>
		<path d="M108.9,48.3l-1.4,0.3c-0.8,0.2-1.6,0.9-1.9,2l-1.7,8.1c-0.1,0.4-0.1,0.9,0.1,1.2c0.1,0.1,0.2,0.2,0.1,0.4
			c-0.1,0.3-0.3,0.4-0.5,0.4s-0.4-0.1-0.5-0.1l-2.7-1.2c-0.4-0.2-0.7-0.2-1,0.1c-1.1,0.8-3.4,1.4-5.2,1.4C87.4,60.8,83,56.4,85,47
			c1.8-8.4,7.8-13.7,14.4-13.7c2.6,0,5.3,0.4,7.8,0.6c0.3,0,0.5,0.4,0.4,0.6l-1.5,7c-0.1,0.4-0.4,0.6-0.6,0.6s-0.4-0.2-0.4-0.5
			c-0.1-4.4-1.8-6.4-6-6.4c-5.7,0-7.9,8.3-8.8,12.4c-1,4.5-1.1,11.1,4.5,11.1c2.1,0,5.1-1.9,5.6-4.6l0.9-4.1
			c0.2-0.9,0.1-1.3-0.1-1.6s-0.5-0.4-0.4-0.7c0-0.2,0.3-0.4,0.7-0.4h7.8c0.4,0,0.5,0.2,0.5,0.4C109.5,47.9,109.3,48.2,108.9,48.3z"
			/>
		<path d="M125.1,46.2c-0.1,0.4-0.3,0.7-0.7,0.7c-0.4,0-0.3-1-0.4-1.4c-0.1-1-0.7-1.7-2.1-1.7c-1.5,0-3.1,1-4.1,2.2
			c-0.4,0.5-0.8,1.3-0.9,1.9l-2,9.3c-0.2,1.1,0.3,1.8,1,2l0.9,0.3c0.4,0.1,0.6,0.3,0.6,0.5c-0.1,0.3-0.4,0.4-0.8,0.4h-9.1
			c-0.4,0-0.7-0.1-0.6-0.4c0.1-0.3,0.4-0.4,0.8-0.5l1-0.3c0.8-0.2,1.6-0.9,1.8-2l2.6-12.4c0.2-1.1-0.3-1.8-1-2l-1.3-0.3
			c-0.4-0.1-0.6-0.3-0.6-0.5c0.1-0.3,0.4-0.4,0.8-0.4h5.6c0.4,0,0.6,0.2,0.6,0.5l0.2,1.8c0,0.2,0.3,0.3,0.5,0.1c1.7-2,4-2.9,6.4-2.9
			c0.4,0,1.1,0.1,1.4,0.3c0.2,0.1,0.7,0.3,0.6,0.7L125.1,46.2z"/>
		<path d="M131.9,60.8c-5.7,0-7.8-4.7-6.7-9.8c1.1-5.1,5.2-9.7,10.9-9.7s7.8,4.6,6.8,9.7C141.7,56.1,137.6,60.8,131.9,60.8z
			 M135.5,43.3c-3.6,0-5,3.8-5.7,7.1s-1.2,8.7,2.5,8.7c3.6,0,5-4.3,5.7-7.5C138.8,48.2,139.3,43.3,135.5,43.3z"/>
		<path d="M162.6,60.4h-6c-0.4,0-0.5-0.2-0.6-0.5l-0.3-1c-0.1-0.2-0.2-0.2-0.4,0c-1.4,1.4-3.4,2-5.3,2c-3.6,0-5.7-2.5-4.7-7.1
			l1.9-8.9c0.2-1.1-0.3-1.8-1-2l-0.9-0.3c-0.3-0.1-0.6-0.3-0.6-0.5c0.1-0.3,0.4-0.4,0.8-0.4h7.4c0.4,0,0.5,0.1,0.5,0.4
			c-0.1,0.3-0.4,0.4-0.7,0.6c-0.4,0.3-0.7,0.9-1,2.3l-2,9.5c-0.5,2.6,0.2,3.9,2.2,3.9c1.7,0,4.4-1.4,4.8-3.5l2.1-10
			c0.2-1.1-0.2-1.8-0.9-2l-0.9-0.3c-0.3-0.1-0.6-0.3-0.6-0.5c0.1-0.3,0.4-0.4,0.8-0.4h6.2c0.4,0,0.6,0.2,0.5,0.5l-0.8,2.9l-2.6,12.1
			c-0.2,1.1,0.2,1.8,1,2l1.3,0.3c0.3,0.1,0.7,0.2,0.6,0.5C163.3,60.2,163,60.4,162.6,60.4z"/>
		<path d="M174.5,60.8c-1.7,0-2.5-0.1-3.6-0.5c-0.2-0.1-0.4,0.1-0.5,0.3l-0.8,3.5c-0.2,1.1,0.2,1.8,1,2l1.3,0.3
			c0.3,0.1,0.7,0.2,0.6,0.5c-0.1,0.3-0.4,0.4-0.8,0.4H164c-0.4,0-0.5-0.1-0.5-0.4c0.1-0.3,0.4-0.4,0.7-0.6c0.4-0.3,0.7-0.9,1-2.2
			l4.2-19.1c0.2-1.1-0.2-1.9-1-2l-1.3-0.3c-0.4-0.1-0.6-0.3-0.6-0.5c0.1-0.3,0.4-0.4,0.8-0.4h5.7c0.4,0,0.5,0.2,0.6,0.5l0.2,0.9
			c0.1,0.1,0.1,0.2,0.3,0.2c0.1,0,0.2-0.1,0.4-0.2c1.6-1.3,3.4-1.9,4.8-1.9c4,0,6.9,2.8,5.4,9.9C183.3,57.2,178.7,60.8,174.5,60.8z
			 M177.9,43.7c-1.4,0-3,0.8-4.2,2.4c-0.2,0.3-0.5,0.8-0.6,1.2l-1.6,7.4c-0.7,3.1,0.2,4.5,2.8,4.5c2,0,4.4-2.3,5.6-7.9
			C181.2,45.7,179.9,43.7,177.9,43.7z"/>
	</g>
</g>
</svg>
