<?xml version="1.0" encoding="utf-8"?>
<!-- Generator: Adobe Illustrator 20.1.0, SVG Export Plug-In . SVG Version: 6.00 Build 0)  -->
<svg version="1.1" id="Layer_1" xmlns="http://www.w3.org/2000/svg" xmlns:xlink="http://www.w3.org/1999/xlink" x="0px" y="0px"
	 viewBox="0 0 20.062 21.625" style="enable-background:new 0 0 20.062 21.625;" xml:space="preserve">
<style type="text/css">
	.st0{fill:#282828;}
</style>
<path class="st0" d="M19.65,19.843l-5.316-6.019c1.194-1.327,1.911-3,2.033-4.811c0.144-2.15-0.561-4.222-1.983-5.834
	C11.434-0.161,6.294-0.5,2.925,2.422C1.298,3.833,0.323,5.793,0.179,7.944c-0.144,2.15,0.56,4.222,1.984,5.834
	c1.423,1.612,3.402,2.578,5.572,2.722c0.186,0.012,0.371,0.019,0.555,0.019c1.63,0,3.192-0.482,4.526-1.377l5.315,6.018
	c0.2,0.226,0.479,0.342,0.759,0.342c0.236,0,0.473-0.081,0.664-0.247C19.974,20.889,20.017,20.258,19.65,19.843z M7.868,14.504
	c-1.632-0.107-3.12-0.833-4.188-2.042c-1.068-1.21-1.597-2.767-1.489-4.385c0.109-1.617,0.841-3.091,2.062-4.15
	c1.155-1.002,2.589-1.494,4.015-1.494c1.7,0,3.391,0.698,4.596,2.062c1.069,1.21,1.598,2.767,1.489,4.384
	c-0.108,1.617-0.84,3.091-2.061,4.149C11.072,14.088,9.501,14.618,7.868,14.504z"/>
</svg>
