<?xml version="1.0" encoding="utf-8"?>
<!-- Generator: Adobe Illustrator 19.0.0, SVG Export Plug-In . SVG Version: 6.00 Build 0)  -->
<svg version="1.1" id="Layer_1" xmlns="http://www.w3.org/2000/svg" xmlns:xlink="http://www.w3.org/1999/xlink" x="0px" y="0px"
	 width="31px" height="31px" viewBox="2 10 31 31" style="enable-background:new 2 10 31 31;" xml:space="preserve">
<style type="text/css">
	.st0{fill:#0ED49A;}
</style>
<g>
	<path class="st0" d="M17.5,41C9,41,2,34,2,25.5S9,10,17.5,10S33,17,33,25.5S26,41,17.5,41z M17.5,11.6c-7.6,0-13.9,6.3-13.9,13.9
		s6.2,13.9,13.9,13.9s13.9-6.2,13.9-13.9S25.1,11.6,17.5,11.6z"/>
	<path id="XMLID_7_" class="st0" d="M25.8,20.9c-0.6,0.3-1.2,0.4-1.9,0.5c0.7-0.4,1.2-1.1,1.5-1.8c-0.6,0.4-1.3,0.7-2.1,0.8
		c-0.6-0.6-1.5-1-2.4-1c-1.8,0-3.3,1.5-3.3,3.3c0,0.3,0,0.5,0.1,0.8c-2.7-0.1-5.2-1.5-6.8-3.4c-0.3,0.5-0.4,1.1-0.4,1.7
		c0,1.1,0.6,2.2,1.5,2.7c-0.5,0-1.1-0.2-1.5-0.4l0,0c0,1.6,1.1,2.9,2.6,3.2c-0.3,0.1-0.6,0.1-0.9,0.1c-0.2,0-0.4,0-0.6-0.1
		c0.4,1.3,1.6,2.3,3.1,2.3c-1.1,0.9-2.6,1.4-4.1,1.4c-0.3,0-0.5,0-0.8,0c1.5,0.9,3.2,1.5,5.1,1.5c6.1,0,9.4-5,9.4-9.4
		c0-0.1,0-0.3,0-0.4C24.8,22.2,25.4,21.6,25.8,20.9z"/>
</g>
</svg>
