<?xml version="1.0" encoding="utf-8"?>
<!-- Generator: Adobe Illustrator 19.0.0, SVG Export Plug-In . SVG Version: 6.00 Build 0)  -->
<svg version="1.1" id="Layer_1" xmlns="http://www.w3.org/2000/svg" xmlns:xlink="http://www.w3.org/1999/xlink" x="0px" y="0px"
	 width="31px" height="31px" viewBox="2 10 31 31" style="enable-background:new 2 10 31 31;" xml:space="preserve">
<style type="text/css">
	.st0{fill:#0ED49A;}
</style>
<g id="XMLID_6_">
	<path id="XMLID_2_" class="st0" d="M17.5,41C9,41,2,34,2,25.5S9,10,17.5,10S33,17,33,25.5S26,41,17.5,41z M17.5,11.6
		c-7.6,0-13.9,6.3-13.9,13.9s6.2,13.9,13.9,13.9s13.9-6.2,13.9-13.9S25.1,11.6,17.5,11.6z"/>
	<path class="st0" d="M10.1,20.2c-0.1,0-0.2,0.1-0.2,0.2v1c0,0.1,0.1,0.3,0.2,0.3l7.2,3.6c0.1,0,0.3,0,0.4,0l7.2-3.6
		c0.1,0,0.2-0.2,0.2-0.3v-1c0-0.1-0.1-0.2-0.2-0.2L10.1,20.2L10.1,20.2z M10,23.2c-0.1,0-0.1,0.1-0.1,0.2v7.2c0,0.1,0.1,0.2,0.2,0.2
		h14.8c0.1,0,0.2-0.1,0.2-0.2v-7.2c0-0.1-0.1-0.2-0.2-0.1l-7.2,3.6c-0.1,0-0.3,0-0.4,0L10,23.2L10,23.2z"/>
</g>
</svg>
