<?xml version="1.0" encoding="utf-8"?>
<!-- Generator: Adobe Illustrator 19.0.0, SVG Export Plug-In . SVG Version: 6.00 Build 0)  -->
<svg version="1.1" id="Layer_1" xmlns="http://www.w3.org/2000/svg" xmlns:xlink="http://www.w3.org/1999/xlink" x="0px" y="0px"
	 width="31px" height="31px" viewBox="2 10 31 31" style="enable-background:new 2 10 31 31;" xml:space="preserve">
<style type="text/css">
	.st0{fill:#0ED49A;}
</style>
<g id="XMLID_1_">
	<path id="XMLID_2_" class="st0" d="M17.5,41C9,41,2,34,2,25.5S9,10,17.5,10S33,17,33,25.5S26,41,17.5,41z M17.5,11.6
		c-7.6,0-13.9,6.3-13.9,13.9s6.2,13.9,13.9,13.9s13.9-6.2,13.9-13.9S25.1,11.6,17.5,11.6z"/>
	<path id="XMLID_5_" class="st0" d="M21.4,22.8h-2.6V21c0-0.6,0.4-0.8,0.7-0.8c0.3,0,1.9,0,1.9,0v-2.8h-2.6c-2.8,0-3.5,2.1-3.5,3.5
		v1.9h-1.6v2.9h1.6c0,3.8,0,8.3,0,8.3h3.5c0,0,0-4.6,0-8.3h2.3L21.4,22.8z"/>
</g>
</svg>
