<?xml version="1.0" encoding="utf-8"?>
<!-- Generator: Adobe Illustrator 19.0.0, SVG Export Plug-In . SVG Version: 6.00 Build 0)  -->
<svg version="1.1" id="Layer_1" xmlns="http://www.w3.org/2000/svg" xmlns:xlink="http://www.w3.org/1999/xlink" x="0px" y="0px"
	 width="76px" height="40px" viewBox="0 0 76 40" style="enable-background:new 0 0 76 40;" xml:space="preserve">
<style type="text/css">
	.st0{fill:#27D29B;}
</style>
<g id="XMLID_2_">
	<path id="XMLID_37_" class="st0" d="M45.7,13.7h-1.2v5.9h1.2c2.2,0,3.4-1,3.4-3C49,14.7,47.9,13.7,45.7,13.7z"/>
	<path id="XMLID_40_" class="st0" d="M56.5,0H0v40h56.5L76,20L56.5,0z M19.7,14.2V30h-5V14.2H9.1V10h15.8l0.7,4.2H19.7z M34.3,30h-5
		V10h5V30z M45.8,23.4h-1.3V30h-5V10H46c4.9,0,7.9,2.2,7.9,6.5C53.9,21,50.6,23.4,45.8,23.4z"/>
</g>
</svg>
