<svg version="1.1" id="Layer_1" xmlns="http://www.w3.org/2000/svg" xmlns:xlink="http://www.w3.org/1999/xlink" x="0px" y="0px" width="31px" height="31px" viewBox="0 0 31 31" enable-background="new 0 0 31 31" xml:space="preserve">
	<g>
		<path fill="#ffffff" d="M15.5,31C7,31,0,24,0,15.5S7,0,15.5,0S31,7,31,15.5S24,31,15.5,31z M15.5,1.6C7.9,1.6,1.6,7.9,1.6,15.5s6.2,13.9,13.9,13.9s13.9-6.2,13.9-13.9S23.1,1.6,15.5,1.6z"></path>
		<path fill="#ffffff" id="XMLID_7_" d="M23.8,10.9c-0.6,0.3-1.2,0.399-1.899,0.5C22.6,11,23.1,10.3,23.4,9.6C22.8,10,22.1,10.3,21.3,10.4c-0.6-0.601-1.5-1-2.399-1c-1.801,0-3.301,1.5-3.301,3.3c0,0.3,0,0.5,0.101,0.8c-2.7-0.1-5.2-1.5-6.8-3.4c-0.3,0.5-0.4,1.101-0.4,1.7c0,1.101,0.6,2.2,1.5,2.7c-0.5,0-1.1-0.2-1.5-0.4l0,0c0,1.601,1.1,2.9,2.6,3.2C10.8,17.4,10.5,17.4,10.2,17.4c-0.2,0-0.4,0-0.6-0.101c0.4,1.3,1.6,2.3,3.1,2.3c-1.1,0.9-2.6,1.4-4.1,1.4c-0.3,0-0.5,0-0.8,0c1.5,0.9,3.2,1.5,5.1,1.5c6.1,0,9.4-5,9.4-9.4c0-0.1,0-0.3,0-0.399C22.8,12.2,23.4,11.6,23.8,10.9z"></path>
	</g>
</svg>
