<svg id="Layer_1" xmlns="http://www.w3.org/2000/svg" width="31" height="31" viewBox="0 0 31 31"><g id="XMLID_6_" fill="#fff"><path id="XMLID_2_" d="M15.5 31C7 31 0 24 0 15.5S7 0 15.5 0 31 7 31 15.5 24 31 15.5 31zm0-29.4C7.9 1.6 1.6 7.9 1.6 15.5s6.2 13.9 13.9 13.9 13.9-6.2 13.9-13.9S23.1 1.6 15.5 1.6z"/><path d="M8.1 10.2c-.1 0-.2.1-.2.2v1c0 .1.1.3.2.3l7.2 3.6h.4l7.2-3.6c.1 0 .199-.2.199-.3v-1c0-.101-.1-.2-.199-.2H8.1zm-.1 3c-.1 0-.1.1-.1.2v7.2c0 .101.1.2.2.2h14.8c.1 0 .199-.1.199-.2v-7.2c0-.101-.1-.2-.199-.101L15.7 16.9h-.4L8 13.2z"/></g></svg>