<svg id="Layer_1" xmlns="http://www.w3.org/2000/svg" width="31" height="31" viewBox="0 0 31 31"><g id="XMLID_6_" fill="#fff"><path id="XMLID_13_" d="M16.5 14z"/><path d="M12.3 21.1H9.4v-8.6h2.9v8.6zm-1.5-9.8c-1 0-1.6-.7-1.6-1.5s.6-1.5 1.6-1.5 1.6.601 1.6 1.5c.1.8-.6 1.5-1.6 1.5zm11.8 9.8h-2.9v-4.6c0-1.2-.4-1.9-1.4-1.9-.8 0-1.3.5-1.5 1-.1.2-.1.4-.1.7v4.8h-2.9v-8.6h2.9v1.2c.399-.601 1.1-1.4 2.6-1.4 1.9 0 3.3 1.2 3.3 3.9v4.9z"/><path id="XMLID_7_" d="M15.5 31C7 31 0 24 0 15.5S7 0 15.5 0 31 7 31 15.5 24 31 15.5 31zm0-29.4C7.9 1.6 1.6 7.9 1.6 15.5s6.2 13.9 13.9 13.9 13.9-6.2 13.9-13.9S23.1 1.6 15.5 1.6z"/></g></svg>