<svg id="IG_EN" xmlns="http://www.w3.org/2000/svg" viewBox="0 0 243.2 70.9"><style>.st0{fill:#024371;stroke:#fff;stroke-width:1.8425}.st1{fill:#fff}.st2{fill:#024371}</style><path d="M100.4 31.1H89c-.4 0-.7-.1-.6-.4s.4-.5.8-.5l1.9-.3c.8-.1 1.6-.9 1.9-2l2.2-10.2 2.1-10.1c.2-1.1-.3-1.9-1-2l-1.7-.3c-.4 0-.6-.3-.6-.5.1-.3.4-.4.8-.4h11.4c.4 0 .7.1.6.4s-.4.5-.8.5l-1.9.3c-.8.1-1.6.9-1.9 2L100 17.8 97.9 28c-.2 1.1.3 1.9 1 2l1.7.3c.4 0 .6.3.6.5s-.4.3-.8.3zM123.6 31.1h-7.4c-.4 0-.5-.1-.5-.4.1-.3.4-.4.7-.6.4-.3.7-.9 1-2.3l2-9.5c.5-2.6-.2-3.9-2.2-3.9-1.7 0-4.4 1.4-4.8 3.5l-2.1 10c-.2 1.1.2 1.8.9 2l.9.3c.3.1.6.3.6.5-.1.3-.4.4-.8.4h-9c-.4 0-.7-.1-.6-.4s.4-.4.8-.5l1-.3c.8-.2 1.6-.9 1.8-2l2.6-12.4c.2-1.1-.2-1.8-1-2l-1.7-.3c-.3 0-.7-.2-.6-.5s.4-.4.8-.4h6.4c.4 0 .5.2.6.5l.3 1c0 .2.2.2.4 0 1.4-1.4 3.4-2 5.3-2 3.6 0 5.7 2.5 4.7 7.1l-1.9 8.9c-.2 1.1.3 1.8 1 2l.9.3c.3.1.6.3.6.5.1.4-.3.5-.7.5zM145.6 13.4c-.5.2-1 .5-1.4 1.2l-10.5 16.6c-.2.3-.8.4-1.4.4-.5 0-1.1-.2-1.1-.4l-3.7-16.6c-.1-.5-.5-.8-1-.9l-1-.2c-.3-.1-.7-.2-.6-.5 0-.2.4-.4.8-.4h8.9c.4 0 .7.1.6.4-.1.3-.4.4-.8.5l-1.2.3c-.5.1-.7.4-.8.8 0 .2-.1.5 0 .7l1.6 10.2c0 .2.4.2.5 0l6-10.2c.1-.2.2-.4.3-.7.1-.4 0-.7-.4-.8l-1.2-.3c-.4-.1-.7-.2-.6-.5.1-.3.4-.4.8-.4h6.2c.4 0 .7.1.6.4 0 .1-.3.2-.6.4zM159.1 21.7h-9.6c-.5 0-1 .4-1.1.9-1 4.7.8 6.8 3.2 6.8 2 0 4.2-1.5 5.3-2.7.2-.2.3-.2.4-.1l.7.7c.1.1.1.2 0 .4-1.7 2.3-4.8 3.9-7.8 3.9-4 0-7.9-2.8-6.4-9.9 1.2-5.8 5.9-9.7 10.7-9.7 3.8 0 7.1 2.4 5.8 8.3-.1.7-.7 1.4-1.2 1.4zm-4.9-8c-2.2 0-4 2.2-5.1 5.6-.1.5 0 .8.5.8H152.8c.8 0 1.4 0 1.9-.2.9-.2 1.2-.7 1.4-1.4.6-2.7 0-4.8-1.9-4.8zM167.4 31.6c-2.4 0-5.4-.6-6.5-.9-.3-.1-.5-.3-.4-.6.1-.7.3-1.7.4-2.5.1-.8.2-1.7.3-2.4 0-.3.2-.5.5-.5s.5.2.5.5c.5 3.7 2.2 4.5 5.8 4.5 1.6 0 3.9-.8 4.3-2.8 1-4.7-10.5-2.6-8.9-9.7.7-3.3 3.3-5.2 7.7-5.2 2.3 0 6.4.5 6.4.5.3 0 .4.2.3.4l-.9 4.7c0 .2-.2.5-.5.5-.2 0-.3-.2-.4-.4-.4-3.3-1.9-4-5.2-4-1.9 0-3.6.8-4 2.5-.8 3.8 10.7 2.2 9.1 9.6-1 4.8-4.8 5.8-8.5 5.8zM189.8 30.3c-1.1.7-2.7 1.1-4.6 1.1-3.6 0-5.6-1.1-5-4l2.7-12.6h-3.5c-.2 0-.4-.2-.4-.4l.3-1.4c.1-.3.3-.4.5-.4h2.8c.4 0 .9-.2 1.5-1l3.6-5.1c.2-.3.5-.4.8-.4s.5.2.4.6l-1.3 5.9h5c.3 0 .4.1.4.4l-.3 1.6c-.1.3-.3.4-.5.4l-5-.1-2.5 11.7c-.4 2-.4 3.4 2 3.4.9 0 2.1-.4 2.7-.8.2-.1.4-.1.4 0l.1.8c.1.1 0 .2-.1.3zM198.5 31.6c-5.7 0-7.8-4.7-6.7-9.8s5.2-9.7 10.9-9.7 7.8 4.6 6.8 9.7c-1.2 5.1-5.3 9.8-11 9.8zm3.7-17.6c-3.6 0-5 3.8-5.7 7.1s-1.2 8.7 2.5 8.7c3.6 0 5-4.3 5.7-7.5.7-3.3 1.3-8.3-2.5-8.3zM226.4 17c-.1.4-.3.7-.7.7s-.3-1-.4-1.4c-.1-1-.7-1.7-2.1-1.7-1.5 0-3.1 1-4.1 2.2-.4.5-.8 1.3-.9 1.9l-2 9.3c-.2 1.1.3 1.8 1 2l.9.3c.4.1.6.3.6.5-.1.3-.4.4-.8.4h-9.1c-.4 0-.7-.1-.6-.4.1-.3.4-.4.8-.5l1-.3c.8-.2 1.6-.9 1.8-2l2.6-12.4c.2-1.1-.3-1.8-1-2l-1.3-.3c-.4-.1-.6-.3-.6-.5.1-.3.4-.4.8-.4h5.6c.4 0 .6.2.6.5l.2 1.8c0 .2.3.3.5.1 1.7-2 4-2.9 6.4-2.9.4 0 1.1.1 1.4.3.2.1.7.3.6.7l-1.2 4.1zM232.6 31.6c-2.4 0-5.4-.6-6.5-.9-.3-.1-.5-.3-.4-.6.1-.7.3-1.7.4-2.5.1-.8.2-1.7.3-2.4 0-.3.2-.5.5-.5s.5.2.5.5c.5 3.7 2.2 4.5 5.8 4.5 1.6 0 3.9-.8 4.3-2.8 1-4.7-10.5-2.6-8.9-9.7.7-3.3 3.3-5.2 7.7-5.2 2.3 0 6.4.5 6.4.5.3 0 .4.2.3.4l-.9 4.7c0 .2-.2.5-.5.5-.2 0-.3-.2-.4-.4-.4-3.3-1.9-4-5.2-4-1.9 0-3.6.8-4 2.5-.8 3.8 10.7 2.2 9.1 9.6-1 4.8-4.8 5.8-8.5 5.8z"/><g><path class="st0" d="M75 62.9c-.5 2.8-3.3 5.1-6 5.1H7.4c-2.8 0-4.6-2.3-4.1-5.1L14.2 7c.5-2.8 3.3-5.1 6-5.1h61.6c2.8 0 4.6 2.3 4.1 5.1L75 62.9z"/><path class="st1" d="M73.8 19.4c-.9-1.1-2.4-1.7-4-1.7H55l1.6-7.9H22.3l-2 9.6h7.1c.6 0 1.6 0 2.2.6.1.1.4.4.4 1.2 0 .3 0 .8-.1 1.3 0 0-4.7 22.7-4.9 24.1-.7 2.7-2.1 3.8-4.5 3.8h-6.4l-2 9.7h34.3L48 52h3.3c1.8 0 3.8-.1 5.5-.6-.1.3-.1.6-.1.6h12.2L73 32.2H55.2l-1.5 8H59c-.1.5-.2 1-.3 1.4-.4 1.8-1.3 2.6-3 2.7H49.5c0-.1 0-.2.1-.5 0 0 3.6-17.3 3.7-17.7.2-.9.4-1.2.4-1.3h8.4v.1c0 .3-.3 1.5-.4 2.2l-.5 2.1h12.2l.3-1.3c0-.1.7-3.4 1-5.1.3-1.1 0-2.4-.9-3.4z"/><path class="st2" d="M40.6 52c-2.3 0-5.2-.9-4.3-5.2l5-24.2c1-3.7 3.1-5 6.1-5h5.7l1.3-6.2H23.7l-1.3 6.2h4.8c.7 0 2.5 0 3.6 1.3.8.9 1 2.2.7 3.9l-5 24.2c-.8 3-2.6 5-6.1 5h-5.1L14 58.3h30.7l1.3-6.4h-5.4v.1z"/><path class="st2" d="M40.5 50.3c-1.5 0-3-.3-2.5-3.1L43 23c.5-2.6 2.3-3.7 4.5-3.7h22.4c2.1 0 3.5 1.4 3.1 3.3-.3 1.7-1 5.1-1 5.1h-8.6s.4-1.8.4-2.3c.4-1.7-.6-2.2-1.9-2.1h-7.4c-1.5 0-2.4-.2-3 2.5l-3.7 17.8c-.2 1.2-.1 2.5 1.7 2.6h6.3c3-.2 4.1-2.1 4.5-4 .2-1.3.7-3.5.7-3.5h-5.3l.9-4.6h14l-3.4 16.3h-8.6s.4-1.9.6-2.7c-.9 1.8-3.3 2.7-8.1 2.7l-10.6-.1z"/></g><g><path d="M108.9 48.3l-1.4.3c-.8.2-1.6.9-1.9 2l-1.7 8.1c-.1.4-.1.9.1 1.2.1.1.2.2.1.4-.1.3-.3.4-.5.4s-.4-.1-.5-.1l-2.7-1.2c-.4-.2-.7-.2-1 .1-1.1.8-3.4 1.4-5.2 1.4C87.4 60.8 83 56.4 85 47c1.8-8.4 7.8-13.7 14.4-13.7 2.6 0 5.3.4 7.8.6.3 0 .5.4.4.6l-1.5 7c-.1.4-.4.6-.6.6s-.4-.2-.4-.5c-.1-4.4-1.8-6.4-6-6.4-5.7 0-7.9 8.3-8.8 12.4-1 4.5-1.1 11.1 4.5 11.1 2.1 0 5.1-1.9 5.6-4.6l.9-4.1c.2-.9.1-1.3-.1-1.6s-.5-.4-.4-.7c0-.2.3-.4.7-.4h7.8c.4 0 .5.2.5.4-.3.2-.5.5-.9.6z"/><path d="M125.1 46.2c-.1.4-.3.7-.7.7-.4 0-.3-1-.4-1.4-.1-1-.7-1.7-2.1-1.7-1.5 0-3.1 1-4.1 2.2-.4.5-.8 1.3-.9 1.9l-2 9.3c-.2 1.1.3 1.8 1 2l.9.3c.4.1.6.3.6.5-.1.3-.4.4-.8.4h-9.1c-.4 0-.7-.1-.6-.4.1-.3.4-.4.8-.5l1-.3c.8-.2 1.6-.9 1.8-2l2.6-12.4c.2-1.1-.3-1.8-1-2l-1.3-.3c-.4-.1-.6-.3-.6-.5.1-.3.4-.4.8-.4h5.6c.4 0 .6.2.6.5l.2 1.8c0 .2.3.3.5.1 1.7-2 4-2.9 6.4-2.9.4 0 1.1.1 1.4.3.2.1.7.3.6.7l-1.2 4.1zM131.9 60.8c-5.7 0-7.8-4.7-6.7-9.8 1.1-5.1 5.2-9.7 10.9-9.7s7.8 4.6 6.8 9.7c-1.2 5.1-5.3 9.8-11 9.8zm3.6-17.5c-3.6 0-5 3.8-5.7 7.1s-1.2 8.7 2.5 8.7c3.6 0 5-4.3 5.7-7.5.8-3.4 1.3-8.3-2.5-8.3zM162.6 60.4h-6c-.4 0-.5-.2-.6-.5l-.3-1c-.1-.2-.2-.2-.4 0-1.4 1.4-3.4 2-5.3 2-3.6 0-5.7-2.5-4.7-7.1l1.9-8.9c.2-1.1-.3-1.8-1-2l-.9-.3c-.3-.1-.6-.3-.6-.5.1-.3.4-.4.8-.4h7.4c.4 0 .5.1.5.4-.1.3-.4.4-.7.6-.4.3-.7.9-1 2.3l-2 9.5c-.5 2.6.2 3.9 2.2 3.9 1.7 0 4.4-1.4 4.8-3.5l2.1-10c.2-1.1-.2-1.8-.9-2l-.9-.3c-.3-.1-.6-.3-.6-.5.1-.3.4-.4.8-.4h6.2c.4 0 .6.2.5.5l-.8 2.9-2.6 12.1c-.2 1.1.2 1.8 1 2l1.3.3c.3.1.7.2.6.5-.1.2-.4.4-.8.4zM174.5 60.8c-1.7 0-2.5-.1-3.6-.5-.2-.1-.4.1-.5.3l-.8 3.5c-.2 1.1.2 1.8 1 2l1.3.3c.3.1.7.2.6.5-.1.3-.4.4-.8.4H164c-.4 0-.5-.1-.5-.4.1-.3.4-.4.7-.6.4-.3.7-.9 1-2.2l4.2-19.1c.2-1.1-.2-1.9-1-2l-1.3-.3c-.4-.1-.6-.3-.6-.5.1-.3.4-.4.8-.4h5.7c.4 0 .5.2.6.5l.2.9c.1.1.1.2.3.2.1 0 .2-.1.4-.2 1.6-1.3 3.4-1.9 4.8-1.9 4 0 6.9 2.8 5.4 9.9-1.4 6-6 9.6-10.2 9.6zm3.4-17.1c-1.4 0-3 .8-4.2 2.4-.2.3-.5.8-.6 1.2l-1.6 7.4c-.7 3.1.2 4.5 2.8 4.5 2 0 4.4-2.3 5.6-7.9 1.3-5.6 0-7.6-2-7.6z"/></g></svg>