<svg id="Layer_1" xmlns="http://www.w3.org/2000/svg" width="65" height="65" viewBox="0 0 65 65"><style>.st0{fill:#27d29b}</style><g id="XMLID_41_"><path id="XMLID_45_" class="st0" d="M32.2 22.6c-4.8 0-7.6 3.9-7.6 10 0 6 2.9 9.9 7.6 9.9 2 0 3.6-.6 4.8-1.8L30.7 36l5.7-1.2 2.8 2.2c.4-1.3.6-2.8.6-4.5 0-6.1-2.9-9.9-7.6-9.9z"/><path id="XMLID_42_" class="st0" d="M32.5 0C14.6 0 0 14.6 0 32.5S14.6 65 32.5 65 65 50.4 65 32.5 50.4 0 32.5 0zm12.4 46.8l-4.2-3.3c-2.2 2-5.1 3.2-8.6 3.2-7.9 0-12.9-5.7-12.9-14.2 0-8.6 5.1-14.4 13-14.4 8 0 12.9 5.8 12.9 14.2 0 2.9-.6 5.5-1.8 7.7l2.6 1.8-1 5z"/></g></svg>