<svg id="Layer_1" xmlns="http://www.w3.org/2000/svg" viewBox="0 0 20.062 21.625"><style>.st0{fill:#282828}</style><path class="st0" d="M19.65 19.843l-5.316-6.019a7.953 7.953 0 0 0 2.033-4.811 7.954 7.954 0 0 0-1.983-5.834C11.434-.161 6.294-.5 2.925 2.422A7.96 7.96 0 0 0 .179 7.944a7.946 7.946 0 0 0 1.984 5.834A8.092 8.092 0 0 0 7.735 16.5a8.093 8.093 0 0 0 5.081-1.358l5.315 6.018a1.011 1.011 0 0 0 1.423.095.995.995 0 0 0 .096-1.412zM7.868 14.504a6.079 6.079 0 0 1-4.188-2.042 5.976 5.976 0 0 1-1.489-4.385 5.987 5.987 0 0 1 2.062-4.15 6.11 6.11 0 0 1 4.015-1.494c1.7 0 3.391.698 4.596 2.062a5.967 5.967 0 0 1 1.489 4.384 5.977 5.977 0 0 1-2.061 4.149 6.06 6.06 0 0 1-4.424 1.476z"/></svg>