<svg id="Layer_1" xmlns="http://www.w3.org/2000/svg" width="31" height="31" viewBox="2 10 31 31"><style>.st0{fill:#0ed49a}</style><g id="XMLID_6_"><path id="XMLID_2_" class="st0" d="M17.5 41C9 41 2 34 2 25.5S9 10 17.5 10 33 17 33 25.5 26 41 17.5 41zm0-29.4c-7.6 0-13.9 6.3-13.9 13.9s6.2 13.9 13.9 13.9 13.9-6.2 13.9-13.9-6.3-13.9-13.9-13.9z"/><path class="st0" d="M10.1 20.2c-.1 0-.2.1-.2.2v1c0 .1.1.3.2.3l7.2 3.6h.4l7.2-3.6c.1 0 .2-.2.2-.3v-1c0-.1-.1-.2-.2-.2H10.1zm-.1 3c-.1 0-.1.1-.1.2v7.2c0 .1.1.2.2.2h14.8c.1 0 .2-.1.2-.2v-7.2c0-.1-.1-.2-.2-.1l-7.2 3.6h-.4L10 23.2z"/></g></svg>