<svg id="Layer_1" xmlns="http://www.w3.org/2000/svg" width="31" height="31" viewBox="2 10 31 31"><style>.st0{fill:#0ed49a}</style><g id="XMLID_1_"><path id="XMLID_2_" class="st0" d="M17.5 41C9 41 2 34 2 25.5S9 10 17.5 10 33 17 33 25.5 26 41 17.5 41zm0-29.4c-7.6 0-13.9 6.3-13.9 13.9s6.2 13.9 13.9 13.9 13.9-6.2 13.9-13.9-6.3-13.9-13.9-13.9z"/><path id="XMLID_5_" class="st0" d="M21.4 22.8h-2.6V21c0-.6.4-.8.7-.8h1.9v-2.8h-2.6c-2.8 0-3.5 2.1-3.5 3.5v1.9h-1.6v2.9h1.6V34h3.5v-8.3h2.3l.3-2.9z"/></g></svg>