<svg id="Layer_1" xmlns="http://www.w3.org/2000/svg" width="31" height="31" viewBox="2 10 31 31"><style>.st0{fill:#0ed49a}</style><path id="XMLID_2_" class="st0" d="M17.5 41C9 41 2 34 2 25.5S9 10 17.5 10 33 17 33 25.5 26 41 17.5 41zm0-29.4c-7.6 0-13.9 6.3-13.9 13.9s6.2 13.9 13.9 13.9 13.9-6.2 13.9-13.9-6.3-13.9-13.9-13.9z"/><path class="st0" d="M22.4 28.3c-.7 0-1.3.3-1.8.7L13 25.5l7.5-3.5c.5.5 1.1.7 1.9.7 1.5 0 2.7-1.2 2.7-2.7s-1.2-2.7-2.7-2.7-2.7 1.2-2.7 2.7l-7.6 3.5c-.5-.5-1.1-.7-1.9-.7-1.5 0-2.7 1.2-2.7 2.7s1.2 2.7 2.7 2.7c.7 0 1.4-.3 1.9-.8l7.6 3.5v.1c0 1.5 1.2 2.7 2.7 2.7s2.7-1.2 2.7-2.7c.1-1.5-1.2-2.7-2.7-2.7z"/></svg>