<svg id="Layer_1" xmlns="http://www.w3.org/2000/svg" width="31" height="31" viewBox="2 10 31 31"><style>.st0{fill:#0ed49a}</style><g id="XMLID_6_"><path id="XMLID_13_" class="st0" d="M18.5 24z"/><path class="st0" d="M14.3 31.1h-2.9v-8.6h2.9v8.6zm-1.5-9.8c-1 0-1.6-.7-1.6-1.5s.6-1.5 1.6-1.5 1.6.6 1.6 1.5c.1.8-.6 1.5-1.6 1.5zm11.8 9.8h-2.9v-4.6c0-1.2-.4-1.9-1.4-1.9-.8 0-1.3.5-1.5 1-.1.2-.1.4-.1.7v4.8h-2.9v-8.6h2.9v1.2c.4-.6 1.1-1.4 2.6-1.4 1.9 0 3.3 1.2 3.3 3.9v4.9z"/><path id="XMLID_7_" class="st0" d="M17.5 41C9 41 2 34 2 25.5S9 10 17.5 10 33 17 33 25.5 26 41 17.5 41zm0-29.4c-7.6 0-13.9 6.3-13.9 13.9s6.2 13.9 13.9 13.9 13.9-6.2 13.9-13.9-6.3-13.9-13.9-13.9z"/></g></svg>