<svg id="Layer_1" xmlns="http://www.w3.org/2000/svg" width="31" height="31" viewBox="2 10 31 31"><style>.st0{fill:#0ed49a}</style><path class="st0" d="M17.5 41C9 41 2 34 2 25.5S9 10 17.5 10 33 17 33 25.5 26 41 17.5 41zm0-29.4c-7.6 0-13.9 6.3-13.9 13.9s6.2 13.9 13.9 13.9 13.9-6.2 13.9-13.9-6.3-13.9-13.9-13.9z"/><path id="XMLID_7_" class="st0" d="M25.8 20.9c-.6.3-1.2.4-1.9.5.7-.4 1.2-1.1 1.5-1.8-.6.4-1.3.7-2.1.8-.6-.6-1.5-1-2.4-1-1.8 0-3.3 1.5-3.3 3.3 0 .3 0 .5.1.8-2.7-.1-5.2-1.5-6.8-3.4-.3.5-.4 1.1-.4 1.7 0 1.1.6 2.2 1.5 2.7-.5 0-1.1-.2-1.5-.4 0 1.6 1.1 2.9 2.6 3.2-.3.1-.6.1-.9.1-.2 0-.4 0-.6-.1.4 1.3 1.6 2.3 3.1 2.3-1.1.9-2.6 1.4-4.1 1.4h-.8c1.5.9 3.2 1.5 5.1 1.5 6.1 0 9.4-5 9.4-9.4v-.4c.5-.5 1.1-1.1 1.5-1.8z"/></svg>