<svg id="Layer_1" data-name="Layer 1" xmlns="http://www.w3.org/2000/svg" viewBox="0 0 24 23"><defs><style>.cls-1{fill:#fff}</style></defs><title>Artboard 1 copy 3</title><path class="cls-1" d="M8 20.6A12.76 12.76 0 0 0 20.87 7.76v-.58a9.21 9.21 0 0 0 2.25-2.34 9.13 9.13 0 0 1-2.6.71 4.55 4.55 0 0 0 2-2.5 9 9 0 0 1-2.87 1.09 4.52 4.52 0 0 0-7.81 3.09 5 5 0 0 0 .11 1 12.82 12.82 0 0 1-9.31-4.69 4.53 4.53 0 0 0 1.4 6A4.57 4.57 0 0 1 2 9v.06a4.52 4.52 0 0 0 3.62 4.44 4.55 4.55 0 0 1-2 .08 4.51 4.51 0 0 0 4.18 3.13 9.05 9.05 0 0 1-5.61 1.94 8.69 8.69 0 0 1-1.07-.06A12.84 12.84 0 0 0 8 20.6" id="Logo_FIXED" data-name="Logo — FIXED"/></svg>