<svg id="Layer_1" xmlns="http://www.w3.org/2000/svg" width="31" height="31" viewBox="0 0 31 31"><g fill="#fff"><path d="M15.5 31C7 31 0 24 0 15.5S7 0 15.5 0 31 7 31 15.5 24 31 15.5 31zm0-29.4C7.9 1.6 1.6 7.9 1.6 15.5s6.2 13.9 13.9 13.9 13.9-6.2 13.9-13.9S23.1 1.6 15.5 1.6z"/><path id="XMLID_7_" d="M23.8 10.9c-.6.3-1.2.399-1.899.5.699-.4 1.199-1.1 1.499-1.8-.6.4-1.3.7-2.1.8-.6-.601-1.5-1-2.399-1-1.801 0-3.301 1.5-3.301 3.3 0 .3 0 .5.101.8-2.7-.1-5.2-1.5-6.8-3.4-.3.5-.4 1.101-.4 1.7 0 1.101.6 2.2 1.5 2.7-.5 0-1.1-.2-1.5-.4 0 1.601 1.1 2.9 2.6 3.2-.301.1-.601.1-.901.1-.2 0-.4 0-.6-.101.4 1.3 1.6 2.3 3.1 2.3-1.1.9-2.6 1.4-4.1 1.4h-.8c1.5.9 3.2 1.5 5.1 1.5 6.1 0 9.4-5 9.4-9.4V12.7c.5-.5 1.1-1.1 1.5-1.8z"/></g></svg>