<?xml version="1.0" encoding="utf-8"?>
<!-- Generator: Adobe Illustrator 19.0.0, SVG Export Plug-In . SVG Version: 6.00 Build 0)  -->
<svg version="1.1" id="Layer_1" xmlns="http://www.w3.org/2000/svg" xmlns:xlink="http://www.w3.org/1999/xlink" x="0px" y="0px"
	 width="65px" height="65px" viewBox="0 0 65 65" style="enable-background:new 0 0 65 65;" xml:space="preserve">
<style type="text/css">
	.st0{fill:#27D29B;}
</style>
<g id="XMLID_41_">
	<path id="XMLID_45_" class="st0" d="M32.2,22.6c-4.8,0-7.6,3.9-7.6,10c0,6,2.9,9.9,7.6,9.9c2,0,3.6-0.6,4.8-1.8L30.7,36l5.7-1.2
		l2.8,2.2c0.4-1.3,0.6-2.8,0.6-4.5C39.8,26.4,36.9,22.6,32.2,22.6z"/>
	<path id="XMLID_42_" class="st0" d="M32.5,0C14.6,0,0,14.6,0,32.5C0,50.4,14.6,65,32.5,65S65,50.4,65,32.5C65,14.6,50.4,0,32.5,0z
		 M44.9,46.8l-4.2-3.3c-2.2,2-5.1,3.2-8.6,3.2c-7.9,0-12.9-5.7-12.9-14.2c0-8.6,5.1-14.4,13-14.4c8,0,12.9,5.8,12.9,14.2
		c0,2.9-0.6,5.5-1.8,7.7l2.6,1.8L44.9,46.8z"/>
</g>
</svg>
