<?xml version="1.0" encoding="utf-8"?>
<!-- Generator: Adobe Illustrator 19.0.0, SVG Export Plug-In . SVG Version: 6.00 Build 0)  -->
<svg version="1.1" id="Layer_1" xmlns="http://www.w3.org/2000/svg" xmlns:xlink="http://www.w3.org/1999/xlink" x="0px" y="0px"
	 width="31px" height="31px" viewBox="2 10 31 31" style="enable-background:new 2 10 31 31;" xml:space="preserve">
<style type="text/css">
	.st0{fill:#0ED49A;}
</style>
<g id="XMLID_6_">
	<g>
		<path id="XMLID_13_" class="st0" d="M18.5,24L18.5,24L18.5,24L18.5,24z"/>
		<path class="st0" d="M14.3,31.1h-2.9v-8.6h2.9C14.3,22.5,14.3,31.1,14.3,31.1z M12.8,21.3L12.8,21.3c-1,0-1.6-0.7-1.6-1.5
			c0-0.8,0.6-1.5,1.6-1.5s1.6,0.6,1.6,1.5C14.5,20.6,13.8,21.3,12.8,21.3z M24.6,31.1h-2.9v-4.6c0-1.2-0.4-1.9-1.4-1.9
			c-0.8,0-1.3,0.5-1.5,1c-0.1,0.2-0.1,0.4-0.1,0.7v4.8h-2.9c0,0,0-7.8,0-8.6h2.9v1.2c0.4-0.6,1.1-1.4,2.6-1.4c1.9,0,3.3,1.2,3.3,3.9
			V31.1z"/>
	</g>
	<path id="XMLID_7_" class="st0" d="M17.5,41C9,41,2,34,2,25.5S9,10,17.5,10S33,17,33,25.5S26,41,17.5,41z M17.5,11.6
		c-7.6,0-13.9,6.3-13.9,13.9s6.2,13.9,13.9,13.9s13.9-6.2,13.9-13.9S25.1,11.6,17.5,11.6z"/>
</g>
</svg>
