<?xml version="1.0" encoding="utf-8"?>
<!-- Generator: Adobe Illustrator 19.0.0, SVG Export Plug-In . SVG Version: 6.00 Build 0)  -->
<svg version="1.1" id="Layer_1" xmlns="http://www.w3.org/2000/svg" xmlns:xlink="http://www.w3.org/1999/xlink" x="0px" y="0px"
	 width="31px" height="31px" viewBox="2 10 31 31" style="enable-background:new 2 10 31 31;" xml:space="preserve">
<style type="text/css">
	.st0{fill:#0ED49A;}
</style>
<path id="XMLID_2_" class="st0" d="M17.5,41C9,41,2,34,2,25.5S9,10,17.5,10S33,17,33,25.5S26,41,17.5,41z M17.5,11.6
	c-7.6,0-13.9,6.3-13.9,13.9s6.2,13.9,13.9,13.9s13.9-6.2,13.9-13.9S25.1,11.6,17.5,11.6z"/>
<path class="st0" d="M22.4,28.3c-0.7,0-1.3,0.3-1.8,0.7L13,25.5l7.5-3.5c0.5,0.5,1.1,0.7,1.9,0.7c1.5,0,2.7-1.2,2.7-2.7
	s-1.2-2.7-2.7-2.7s-2.7,1.2-2.7,2.7l-7.6,3.5c-0.5-0.5-1.1-0.7-1.9-0.7c-1.5,0-2.7,1.2-2.7,2.7s1.2,2.7,2.7,2.7
	c0.7,0,1.4-0.3,1.9-0.8l7.6,3.5c0,0,0,0,0,0.1c0,1.5,1.2,2.7,2.7,2.7s2.7-1.2,2.7-2.7C25.2,29.5,23.9,28.3,22.4,28.3z"/>
</svg>
